<svg version="1.1" xmlns="http://www.w3.org/2000/svg" xmlns:xlink="http://www.w3.org/1999/xlink" width="20px" height="140px">
<!-- Build icon -->
<path fill="#333333" d="M17.605,5.252c-0.379-0.378-0.549-0.885-0.516-1.379l-0.635-0.635
	c0,0-3.872-4.445-8.396-1.865l0.214,0.268L9.96,1.379L8.57,2.013l0.261,0.326c1.877-0.282,5.261,1.069,4.146,2.467L9.679,8.104
	L9.672,8.097C9.444,8.313,9.174,8.458,8.888,8.53L0,16.649l2.783,2.783l8.101-8.869c0.074-0.31,0.229-0.604,0.472-0.846
	c0.029-0.03,0.062-0.057,0.094-0.085l3.535-3.535l0,0c0.454,0.001,0.939,0.143,1.287,0.49c0.361,0.362,0.533,0.841,0.518,1.315
	l1.047,1.046L20,6.784l-1.016-1.016C18.49,5.801,17.983,5.63,17.605,5.252z"/>
<!-- Events icon -->
<path fill="#333333 " transform="translate(0, 20)" d="M17,2v3h-4V2H7v3H3V2H0v18h20V2H17z M18,18H2V7h16V18z M16,0v4h-2V0H16z M6,0v4H4V0H6z M8,11H6V9h2V11z M11,11
	H9V9h2V11z M14,11h-2V9h2V11z M17,11h-2V9h2V11z M17,14h-2v-2h2V14z M5,14H3v-2h2V14z M8,14H6v-2h2V14z M11,14H9v-2h2V14z M14,14h-2
	v-2h2V14z M5,17H3v-2h2V17z M8,17H6v-2h2V17z M11,17H9v-2h2V17z M14,17h-2v-2h2V17z"/>
<!-- Code icon -->
<path fill="#333333" transform="translate(0, 40)" d="M0,10l6.347-6.347L8.51,5.817L4.327,10l4.183,4.184l-2.163,2.163L0,10L0,10z M11.489,14.184l2.164,2.163
	L20,10l-5.494-5.494l-0.853-0.853L11.49,5.817l0.852,0.853L15.673,10L11.489,14.184L11.489,14.184z"/>
<!-- Design icon -->
<path fill="#333333" transform="translate(0, 60)" d="M10.098,19.043l4.682-4.682l0,0l0.002-0.001l1.975-1.976c-0.607,1.917-1.488,4.818-1.488,5.561
	c0,1.135,0.92,2.055,2.055,2.055s2.055-0.92,2.055-2.055c0-0.923-1.361-5.184-1.867-6.738c0.004-0.052,0.008-0.104,0.008-0.154
	c-0.004-0.388-0.115-0.774-0.289-1.195c-0.531-1.25-1.701-2.843-3.275-4.422c-1.051-1.049-2.115-1.92-3.072-2.54
	c-0.479-0.31-0.93-0.558-1.35-0.735C9.355,2.087,9.186,2.026,9.02,1.979c-0.287-0.267-0.566-0.516-0.84-0.74
	C7.736,0.878,7.307,0.577,6.867,0.357C6.43,0.139,5.973,0,5.498,0C4.801-0.005,4.125,0.32,3.555,0.899
	C3.01,1.434,2.719,2.1,2.725,2.774c0.002,0.618,0.217,1.21,0.541,1.79c0.203,0.357,0.449,0.714,0.73,1.075L0.346,9.29
	C0.084,9.55-0.002,9.9,0,10.207c0.002,0.389,0.113,0.774,0.289,1.196c0.529,1.25,1.701,2.842,3.273,4.422
	c1.051,1.049,2.115,1.92,3.072,2.541c0.479,0.31,0.93,0.558,1.352,0.734c0.42,0.174,0.807,0.285,1.195,0.289
	c0.004,0,0.008,0,0.014,0C9.498,19.389,9.842,19.3,10.098,19.043 M4.318,3.972C4.053,3.502,3.93,3.099,3.932,2.774
	c0.006-0.352,0.113-0.651,0.477-1.021c0.43-0.422,0.752-0.542,1.09-0.546c0.236,0,0.508,0.069,0.832,0.23
	c0.332,0.162,0.703,0.423,1.111,0.76c-0.006,0.006-0.014,0.011-0.02,0.018c0,0.001-0.002,0.002-0.004,0.003L4.857,4.778
	C4.643,4.495,4.459,4.225,4.318,3.972z M13.867,13.414c-0.014,0.003-0.039,0.008-0.08,0.007c-0.131,0.003-0.4-0.054-0.729-0.194
	c-1.004-0.416-2.547-1.521-4.037-3.017C8.025,9.214,7.203,8.204,6.641,7.336C6.361,6.903,6.145,6.506,6.006,6.175
	c-0.141-0.33-0.197-0.598-0.193-0.729c0-0.039,0.004-0.065,0.006-0.078l1.369-1.369C7.217,4.082,7.25,4.165,7.285,4.25
	c0.529,1.25,1.701,2.842,3.275,4.422c1.051,1.049,2.113,1.92,3.07,2.541c0.48,0.311,0.932,0.559,1.352,0.734
	c0.086,0.036,0.17,0.068,0.252,0.098L13.867,13.414z M12.979,9.252c-0.486-0.401-0.99-0.856-1.488-1.355
	c-0.996-0.996-1.818-2.006-2.381-2.874C8.828,4.59,8.613,4.192,8.475,3.861c-0.141-0.33-0.197-0.597-0.195-0.729
	c0-0.021,0.002-0.039,0.004-0.052c0.014-0.002,0.029-0.003,0.051-0.003c0.133-0.003,0.4,0.054,0.73,0.194
	c1.002,0.417,2.547,1.522,4.035,3.016c0.996,0.996,1.82,2.007,2.381,2.875c0.02,0.03,0.039,0.06,0.057,0.09H12.979z"/>
<!-- News icon -->
<path fill="#333333" transform="translate(0, 80)" d="M1.523,8.301c0,0.802,0.084,1.583,0.234,2.341C0.742,10.346,0,9.411,0,8.301C0,7.189,0.742,6.255,1.758,5.96
	C1.607,6.717,1.523,7.499,1.523,8.301z M9,5.022H2.7C2.628,5.278,2.556,5.537,2.5,5.799C2.328,6.605,2.3,7.442,2.3,8.301
	c0,0.857,0.028,1.694,0.2,2.501c0.05,0.234,0.137,0.466,0.2,0.695h1.052c0.191,0.591,0.557,1.427,1.224,2.12
	C6.146,14.836,5.024,18.446,6,18.885c0.975,0.438,3.268-0.293,2.536-1.634c-0.731-1.342-0.976-1.164-0.976-2.375
	c0-1.001,0.931-2.175,0.618-3.379H9V5.022z M18.555,1.227c-0.151-0.369-0.434-0.229-0.545-0.109
	c-0.045,0.094-0.099,0.185-0.15,0.275c0.885,2.128,1.379,4.46,1.379,6.908c0,2.445-0.492,4.775-1.377,6.9
	c0.043,0.076,0.09,0.15,0.128,0.228c0.073,0.104,0.383,0.39,0.562-0.045C19.482,13.21,20,10.816,20,8.301
	C20,5.789,19.484,3.398,18.555,1.227z M17,1.768c-1.34,1.928-3.629,3.265-7.215,3.265v6.536c3.582,0,5.872,1.334,7.215,3.259
	c0.789-2.024,1.2-4.224,1.2-6.526C18.2,5.995,17.79,3.794,17,1.768z"/>
<!-- Comment icon -->
<path fill="#333333" transform="translate(0, 100)" d="M10.154,1.397C4.63,1.288,0.085,4.692,0.001,8.998
	c-0.03,1.498,0.484,2.906,1.398,4.113l0,0c1.572,2.02-0.145,5.494-0.145,5.494l5.068-2.184c1.092,0.346,2.279,0.547,3.521,0.571
	c5.523,0.108,10.068-3.294,10.153-7.601S15.675,1.506,10.154,1.397z"/>
<!-- Author icon -->
<path fill="#333333" transform="translate(0, 120)" d="M17.292,0l-2.303,2.301l2.708,2.705L20,2.705L17.292,0z M13.765,3.523L2.2,15.075l0.009,0.009L0,20
	l4.9-2.229l0.008,0.009l0.022-0.022h0.001L16.473,6.229L13.765,3.523z M4.64,16.516l-2.137,0.971l0.964-2.144l1.077-1.077
	l0.155,1.027l1.019,0.146L4.64,16.516z"/>
</svg>
