<?xml version="1.0" standalone="no"?> <!DOCTYPE svg PUBLIC "-//W3C//DTD SVG 1.0//EN" "http://www.w3.org/TR/2001/REC-SVG-20010904/DTD/svg10.dtd" > <svg xmlns="http://www.w3.org/2000/svg" width="100%" height="100%">
<defs >
<font id="gtg" horiz-adv-x="516" ><font-face
    font-family="GTG"
    units-per-em="1000"
    panose-1="0 0 0 0 0 0 0 0 0 0"
    ascent="751"
    descent="-251"
    alphabetic="0" />
<missing-glyph horiz-adv-x="500" />
<glyph unicode=" " glyph-name="space" horiz-adv-x="500" />
<glyph unicode="!" glyph-name="exclam" horiz-adv-x="245" d="M153 745Q156 715 157 670T160 572T163 463T165 354T167 259T171 190Q149 164 129 161T88 190Q78 204 71 247T59 347T50 469T44 593T41 697T41 762Q50 778 66 780T98 777T130 762T153 745ZM218 -13Q199
-15 188 -24T158 -36Q148 -27 136 -17T113 6T96 33T94 64Q98 81 112 89T143 98T179 89T209 67T225 33T218 -13Z" />
<glyph unicode="&quot;" glyph-name="quotedbl" horiz-adv-x="272" d="M90 714Q94 699 99 670T108 610T114 558Q117 536 117 535Q118 514 121 493T124 452T122 416T107 391Q77 389 62 399T40 427T32 469T29 518Q27 540 25 568T22 626T25 682T40 727Q58 731 69
726T90 714ZM231 559Q234 520 234 486T214 429Q196 429 189 427T167 429Q160 448 155 471T145 518T137 564T132 606L117 698Q128 722 138 728T172 732Q187 729 199 712Q204 703 209 678T219 627Q224 596 231 559Z" />
<glyph unicode="#" glyph-name="numbersign" horiz-adv-x="560" d="M249 468Q254 461 261 461T277 462T293 466T308 468Q314 484 316 503T321 541T329 576T346 603Q361 608 376 604T405 592T432 572T454 551Q457 537 456 526T452 506T446 488T441 468Q448 460
457 455T477 446T496 436T513 423V367Q504 358 488 356T455 351T425 343T409 321Q423 313 445 311T488 305T524 288T538 249Q537 227 523 215T487 195T442 181T398 165Q393 151 393 134T394 100T401 66T409 36Q390 -6 366 -11T319 2T283 57T270 134Q265 125 264
113T262 87T260 61T256 36Q244 31 234 25T212 15T188 9T159 11Q147 34 133 52T107 95Q67 83 32 82T-29 92T-68 132T-79 204Q-66 217 -44 221T4 226T55 229T100 238Q99 245 101 250T105 260T107 267T100 276Q96 283 89 283T74 282T58 278T43 276Q17 299 3 333T-9
417Q0 429 13 432T43 434T77 431T114 430Q127 449 130 474T133 526T136 577T152 617Q171 617 183 611T206 596T226 579T249 565Q253 536 254 516T249 468ZM224 269Q243 267 256 272T281 283V321Q270 319 259 317T238 310T225 296T224 269Z" />
<glyph unicode="$" glyph-name="dollar" horiz-adv-x="557" d="M475 485Q459 479 441 471T404 456T364 448T324 452Q327 471 333 485T346 515T355 548T356 591Q341 599 317 598T266 587T212 561T165 525T133 480T125 431Q128 410 146 395T189 367T245 343T304
319Q329 309 356 297T408 271T454 243T489 214Q497 205 510 183T532 131T545 71T535 15Q512 -27 456 -45T324 -58Q269 -54 216 -42T115 -12T30 29T-34 81Q-26 97 -23 117T-14 154Q8 162 24 159T56 149T87 134T125 127Q136 123 139 112T151 95Q176 88 211 80T284
69T353 72T402 102Q404 120 399 131T387 152T371 168T356 187Q317 202 273 217T187 250T105 289T38 340T-4 406T-14 492Q-10 526 9 560T59 625T128 680T208 716T291 729T370 709Q382 703 395 689T422 663Q440 649 454 642T475 623Q484 606 485 591T485 560T480
526T475 485ZM237 763Q267 767 283 758T307 729T314 681T310 621T302 552T296 480Q294 419 292 353T291 227Q294 180 301 142T316 68T327 0T325 -68Q308 -82 294 -79T268 -64T247 -36T229 -7Q230 24 227 57T218 124T209 193T203 264Q201 315 205 373T211 492Q212
527 212 564T212 635T216 700T229 751Q233 753 233 758T237 763Z" />
<glyph unicode="&amp;" glyph-name="ampersand" horiz-adv-x="407" d="M242 726Q251 703 255 670T253 610Q237 610 233 601Q218 602 206 614T186 644T176 679T179 711T200 730T242 726ZM315 407Q307 404 300 408T285 419T271 435T258 450Q220 436 194 410T146
352Q155 350 168 353T195 360T223 364T249 356Q263 336 265 312T254 271Q247 263 235 260T212 248Q196 236 181 222T152 192T130 160T118 126Q126 116 137 113T161 110T184 113T203 117Q220 119 237 125T273 137T308 143T344 135Q344 108 334 92T309 65T273 48T231
37Q233 22 230 7T221 -23T212 -53T207 -85Q207 -96 216 -106T227 -127Q227 -143 216 -159T194 -184Q167 -175 152 -153T131 -103T128 -44T142 18Q128 22 117 27T97 39T80 55T62 79Q52 93 42 107T29 141Q27 160 33 176T48 208T69 237T91 266Q86 276 80 283T69 297T58
311T52 328Q48 352 58 379T88 433T133 482T188 519T245 539T297 534Q310 528 320 514T335 482T335 444T315 407Z" />
<glyph unicode="&apos;" glyph-name="quotesingle" horiz-adv-x="152" d="M127 712Q128 693 127 678T125 647T121 616T117 580Q116 562 116 544T114 510T104 486T80 476Q62 476 53 490T41 528T37 581T39 639T40 696T37 741Q36 746 38 748T42 755Q59 756 71 753T94
744T111 729T127 712Z" />
<glyph unicode="(" glyph-name="parenleft" horiz-adv-x="331" d="M273 672Q246 615 216 556T163 441T129 333T126 240Q133 206 140 169T159 96T185 32T225 -12Q236 -20 249 -24T276 -32T300 -44T320 -65Q302 -100 279 -111T231 -116T180 -89T130 -41T84 16T47
72Q36 111 30 146T21 219Q15 281 23 340T49 455T89 561T132 655Q140 662 143 668T150 681T157 693T171 707Q173 714 181 719T195 726Q224 721 243 707T273 672Z" />
<glyph unicode=")" glyph-name="parenright" horiz-adv-x="343" d="M37 -47Q46 -31 57 -22T80 -6T104 8T127 28Q143 46 155 73T177 132T193 198T201 266Q207 341 199 413T167 539Q155 567 138 590T106 636T78 679T65 726Q73 731 74 740T87 752Q115 753 133 749T166
733T193 705T219 665Q241 628 260 587T294 489Q304 447 309 399T315 302T310 203T294 109Q286 74 277 48T254 0T225 -40T185 -78Q162 -97 139 -108T95 -118T60 -100T37 -47Z" />
<glyph unicode="*" glyph-name="asterisk" horiz-adv-x="485" d="M246 786Q254 777 255 764T260 738Q292 746 317 740T360 718Q371 719 385 719T414 719T439 712T457 698Q455 672 440 660T402 641T356 631T312 620Q320 608 333 602T361 592T389 581T411 563Q411
548 408 534T396 511Q376 513 360 518T329 530T299 540T266 547Q260 533 263 518T270 488T275 459T266 433Q254 433 246 431T230 429Q220 442 210 455T193 485T183 521T184 569Q170 561 161 551T143 530T127 510T107 495Q97 491 90 496T77 510T64 529T49 547Q43
557 35 565T21 581T10 597T7 615Q9 624 16 628T34 635T58 640T85 646Q77 656 65 670T45 701T38 732T59 760Q81 758 95 749T122 729T146 706T173 686Q181 694 180 707T175 735T172 764T184 790Q204 790 216 790T246 786Z" />
<glyph unicode="+" glyph-name="plus" horiz-adv-x="634" d="M341 386Q376 386 417 393T494 400T557 389T592 338Q571 320 540 311T474 296T404 285T341 270Q341 247 344 227T350 188T357 149T360 106Q358 97 355 94T349 89T344 88T341 86Q302 83 280 95T247 128T234
179T231 242Q208 245 180 239T123 228T68 226T20 249Q8 278 13 296T34 324T74 340T124 348T177 355T224 365Q234 433 224 501Q242 519 256 517T283 503T308 476T333 454Q339 443 340 425T341 386Z" />
<glyph unicode="," glyph-name="comma" horiz-adv-x="151" d="M-21 -218Q-28 -211 -31 -202T-38 -184T-44 -166T-51 -150Q-40 -132 -21 -118T15 -88T45 -52T54 0Q52 10 46 19T33 38T21 60T16 87Q19 100 26 107T41 115T58 116T72 111Q80 107 87 98T101 79T113 57T121
38Q131 2 131 -26T121 -91Q104 -139 66 -174T-21 -218Z" />
<glyph unicode="-" glyph-name="hyphen" horiz-adv-x="446" d="M419 262Q412 258 414 250T410 230Q402 222 396 218T380 213T359 211T326 212Q248 209 179 205T48 208Q45 215 40 222T31 236T26 252T30 271Q44 288 67 290T111 293Q145 296 172 296T224 297T276
298T334 302Q346 303 359 303T385 299T406 286T419 262Z" />
<glyph unicode="." glyph-name="period" horiz-adv-x="181" d="M35 107Q47 112 58 118T81 127T105 129T130 121Q145 111 151 94T157 58T156 19T150 -17Q136 -36 120 -40T87 -38T56 -16T34 19T25 62T35 107Z" />
<glyph unicode="/" glyph-name="slash" horiz-adv-x="451" d="M418 720Q426 706 427 694T431 669Q426 658 417 651T397 635Q371 591 349 553T304 473Q241 352 184 226T77 -31Q53 -38 36 -28T5 2Q13 25 23 46T43 90Q51 108 59 123T76 159Q104 227 137 300T206 444Q238
507 276 569T339 701Q344 703 344 706T349 711Q361 719 382 722T418 720Z" />
<glyph unicode="0" glyph-name="zero" horiz-adv-x="687" d="M350 628Q382 654 413 659T475 654T534 621T587 568Q625 523 644 465T665 344T648 219T593 105Q549 46 493 11T374 -33T248 -20T128 56Q99 84 74 120T34 203T14 305T24 430Q27 448 33 471T46 517T62
563T80 602Q91 621 105 634T134 660T164 688T194 726Q248 721 285 694T350 628ZM160 205Q176 177 203 159T264 133T332 126T397 140Q367 179 343 226T297 322T254 420T207 512Q187 477 171 438T147 358T140 278T160 205ZM475 205Q502 221 520 250T547 315T551 389T529
462Q508 484 486 488T439 493T391 494T343 512Q357 471 370 429T399 347T432 270T475 205Z" />
<glyph unicode="1" glyph-name="one" horiz-adv-x="357" d="M311 179Q314 156 324 140T343 109T359 80T363 50Q363 37 355 24T334 -1T309 -20T287 -27Q264 -27 247 -10T218 32T199 81T188 124Q178 156 176 200T175 291T181 386T190 473Q174 459 154 441T113 411T71
399T30 426Q1 462 6 489T36 540T97 586T166 634Q176 643 183 648T195 657T206 666T216 677Q223 684 225 681T235 677Q240 669 245 667T251 659Q278 647 296 634T328 608Q338 569 334 518T321 409T308 293T311 179Z" />
<glyph unicode="2" glyph-name="two" horiz-adv-x="577" d="M258 142Q283 136 311 143T370 160T434 174T502 170Q525 164 541 144T562 99T557 50T515 14Q505 10 494 10T471 11T445 14T416 14Q382 11 354 7T300 -4T249 -21T193 -45Q179 -53 168 -63T145 -81T123
-96T100 -102Q83 -102 67 -94T38 -71T20 -34T17 16Q19 37 21 51T35 87Q42 103 51 117T66 142Q95 189 132 231T206 318T271 412T314 526Q292 541 276 541T247 533T221 510T197 484T170 463T137 457Q124 458 112 466T91 489T77 520T73 557Q74 597 97 625T156 668T235
686T318 680T392 648T441 591Q451 538 447 494T429 410T394 337T349 270T301 206T258 142Z" />
<glyph unicode="3" glyph-name="three" horiz-adv-x="564" d="M391 444Q444 423 479 383T539 289Q541 208 525 152T478 60T404 3T308 -27T198 -39T78 -41Q66 -31 55 -19T36 10T24 49T24 103Q47 128 79 131T146 131T217 121T285 123Q311 126 330 137T365 165T392
204T415 250Q397 281 374 289T323 294T266 281T207 268Q196 278 187 295T173 331T166 370T170 409Q182 426 196 438T223 463T249 490T270 526Q240 542 206 538T133 519Q118 509 106 498T82 477T60 461T37 454Q23 458 10 468T-13 496T-28 537T-31 591Q-12 622 23
644T101 680T191 695T281 691T358 665T411 616T426 542T391 444Z" />
<glyph unicode="4" glyph-name="four" horiz-adv-x="496" d="M473 48Q466 37 460 24T448 0T434 -19T417 -27Q396 -29 382 -14T359 28T346 89T339 161T337 236T337 306Q313 296 287 292T235 286T183 281T135 272Q120 264 109 254T84 243Q70 247 57 261T33 292T15
328T4 360Q2 400 12 440T36 520T65 596T84 666Q103 673 117 669T144 657T168 638T195 621Q197 585 191 561T176 518T157 482T141 443Q161 436 185 438T235 444T287 446T337 432Q342 458 342 491T344 559T351 623T371 673Q388 673 406 668T439 654T465 632T481 603Q483
583 479 555T469 493T457 423T448 349Q446 302 446 262T449 186T458 115T473 48Z" />
<glyph unicode="5" glyph-name="five" horiz-adv-x="534" d="M521 599Q521 581 519 571T510 553T492 541T462 529Q415 530 380 527T313 520T245 512T161 504Q158 496 158 489T157 473T156 455T149 434Q184 428 214 427T273 421Q319 409 364 379T443 308T490 217T491
119Q474 60 429 24T322 -24T192 -25T60 22Q60 34 57 44T51 66T46 89T47 120Q83 138 121 133T195 118T266 104T330 117Q359 135 366 157T364 200T334 241T284 273T225 291T165 289Q152 286 139 276T112 257T83 241T50 237Q42 238 33 247T16 269T2 297T-3 329Q-6
350 -3 374T6 424T17 475T23 520Q22 535 19 552T14 587T16 622T32 656Q65 656 85 655T126 654T171 654T240 660Q282 664 324 671T404 676T472 658T521 599Z" />
<glyph unicode="6" glyph-name="six" horiz-adv-x="547" d="M500 508Q483 499 469 497T441 498T415 506T388 515Q330 532 288 527T217 502T171 451T146 384T137 313T140 249Q152 246 164 251T191 265T220 282T252 297Q276 305 308 305T372 299T435 277T487 241T519
191T522 127Q517 99 493 72T439 23T376 -11T321 -19Q256 -17 197 12T93 88T24 198T6 331Q9 381 19 426T45 510T84 578T136 625Q157 638 194 648T271 664T347 672T404 671Q431 665 455 652T493 618T511 570T500 508ZM267 127Q281 127 295 126T322 126T346 133T366
151Q354 160 340 162T311 160T285 148T267 127Z" />
<glyph unicode="7" glyph-name="seven" horiz-adv-x="434" d="M368 643Q380 608 378 577T366 517T345 458T325 397Q365 393 384 381T406 352T399 317T371 283T328 257T278 244Q262 228 256 202T246 144T241 82T232 24T211 -18T169 -34Q138 -31 122 -8T101 48T102
116T122 181Q106 193 89 204T58 230T39 269T40 327Q51 336 63 338T89 341T117 341T147 344Q164 361 174 385T192 437T208 492T232 544Q215 547 208 549T195 552T179 554T146 551Q129 551 112 545T78 544Q61 547 46 557T22 584T13 621T24 665Q75 677 121 685T210
694T292 683T368 643Z" />
<glyph unicode="8" glyph-name="eight" horiz-adv-x="474" d="M354 405Q374 385 394 357T429 295T451 223T453 146Q450 121 441 101T419 63T391 32T361 3Q304 -15 251 -4T156 36T87 108T54 198T68 292T142 375Q113 392 93 417T50 466Q47 483 45 502T42 541T45
577T57 608Q75 617 94 630T135 655T183 674T240 678Q243 678 260 675T298 666T337 655T361 647Q384 630 393 600T400 535T386 466T354 405ZM179 504Q185 487 204 480T240 466Q258 483 270 501T296 543Q284 549 264 550T226 547T193 532T179 504ZM272 314Q263 297
245 282T207 250T175 216T165 175Q170 146 202 133T288 114Q313 126 324 156T333 220T315 280T272 314Z" />
<glyph unicode="9" glyph-name="nine" horiz-adv-x="494" d="M462 19Q454 8 447 -2T432 -20T412 -31T385 -32Q358 -28 341 -3T313 60T299 144T294 236T294 322T298 390Q277 393 256 389T213 380T170 372T127 374Q98 380 74 401T35 452T19 518T33 589Q49 620 80
644T149 681T226 691T298 667Q319 650 341 628T391 589Q398 586 408 580T426 564T440 545T446 524Q449 513 448 501T443 476T435 450T427 425Q422 399 417 372T411 318Q411 294 411 266T414 210T420 158T434 118Q443 95 450 73T462 19ZM155 495Q171 501 189 504T223
513T251 525T270 547Q257 560 239 561T203 554T172 530T155 495Z" />
<glyph unicode=":" glyph-name="colon" horiz-adv-x="202" d="M164 348Q139 340 117 348T78 374T54 414T48 457Q66 461 80 461T106 457T130 450T157 443Q173 423 176 401T164 348ZM171 103Q166 87 164 67T150 35Q120 33 99 41T64 64T41 100T27 144Q45 164 66 166T107
159T143 134T171 103Z" />
<glyph unicode=";" glyph-name="semicolon" horiz-adv-x="264" d="M85 433Q121 438 151 431T198 408T218 370T202 321Q173 319 149 327T109 351T87 388T85 433ZM-3 -86Q25 -75 46 -54T82 -5T101 54T103 118Q130 119 150 116T183 101T200 71T199 22Q193 -13 176
-46T140 -107Q124 -125 107 -140T82 -156Q65 -160 52 -156T29 -142T11 -118T-3 -86Z" />
<glyph unicode="&lt;" glyph-name="less" horiz-adv-x="538" d="M437 537Q361 498 294 450T164 342Q175 330 187 322T213 307T239 293T267 276Q281 271 291 263T316 244Q334 232 348 222T378 200T412 176T454 146Q468 136 481 127T504 109T520 88T526 63Q525 54
519 44T501 26T475 18T444 24Q425 29 418 45T396 80Q373 100 336 121T257 171Q221 196 186 221T118 256Q111 259 103 260T85 261T66 264T50 271Q41 276 35 287T25 311T21 337T23 359Q25 366 34 374T54 392T77 409T100 425Q157 470 211 517T328 609Q345 618 358
624T382 635T406 643T435 648Q448 648 461 642T485 625T501 604T507 584Q507 561 487 553T437 537Z" />
<glyph unicode="=" glyph-name="equal" horiz-adv-x="560" d="M524 392Q516 382 506 377T484 370T459 367T431 365Q394 360 354 358T271 354T187 354T106 357Q102 366 95 374T81 390T72 408T74 432Q77 442 96 447T143 455T205 458T272 458T336 457T386 459Q411
460 440 459T492 450T525 430T524 392ZM23 288Q30 294 39 295T57 297T77 295T97 295Q129 296 161 299T226 307T295 313T373 313Q387 312 404 312T436 307T459 293T463 266Q462 256 449 249T417 235T378 225T344 217Q317 213 281 213T202 206Q170 200 136 195T74
195T32 221T23 288Z" />
<glyph unicode="&gt;" glyph-name="greater" horiz-adv-x="664" d="M64 91Q167 146 263 206T445 339Q397 372 342 398T232 449T125 501T29 563Q32 573 31 582T28 601T27 617T33 630Q54 642 75 640T117 627T161 602T205 574Q229 560 259 545T322 514T386 483T445
454Q460 442 478 435T512 416Q526 410 548 402T589 382T622 356T631 322Q631 312 622 304T600 288T571 273T542 259Q506 236 467 206T382 149Q339 120 297 97T222 50Q208 40 196 28T169 7T138 -7T97 -5Q74 2 65 29T64 91Z" />
<glyph unicode="?" glyph-name="question" horiz-adv-x="400" d="M188 301Q194 295 199 284T205 261T204 239T193 222Q166 222 143 238T109 275Q95 297 92 314T93 346T110 375T140 408Q162 428 189 451T239 503T274 564T279 637Q255 647 225 649T168 643T124 617T109
568Q91 568 79 574T58 589T41 610T22 632Q26 668 49 690T105 721T176 730T249 719T313 690T354 648Q371 619 372 590T364 536Q358 518 353 505T341 481T326 457T305 429Q294 417 283 401T264 375Q253 365 242 358T220 343T201 325T188 301ZM236 56Q236 40 235 22T226
-8Q212 -12 196 -6T167 9T144 31T135 51Q137 67 148 73T175 80T207 73T236 56Z" />
<glyph unicode="@" glyph-name="at" horiz-adv-x="717" d="M588 445Q612 424 637 387T679 307T699 221T685 141Q676 123 658 102T617 61T566 28T512 11Q494 9 476 15T438 20Q416 20 393 14T346 0T295 -11T241 -9Q218 -4 199 15T170 60T161 115T183 170Q209 179
233 182T281 185T330 182T385 175Q392 213 390 239T362 276Q348 281 327 276T285 266T248 266T227 295Q224 315 236 328T269 349T313 359T356 358Q390 353 418 333T465 281T488 209T482 122Q513 118 540 140T582 196T596 270T569 344Q546 365 522 385T472 421T415
443T348 445Q308 439 269 413T197 348T143 263T120 170Q119 139 124 107T141 48T170 -1T212 -32Q233 -41 256 -41T302 -36T349 -28T393 -24T433 -34T467 -66Q472 -73 469 -77T460 -86T449 -96T444 -109Q377 -123 332 -130T247 -134Q227 -132 206 -122T164 -99T126
-70T97 -42Q68 -8 48 38T21 136T19 240T48 340Q60 364 84 392T138 448T202 496T265 527Q336 550 402 535T525 484Q543 473 558 465T588 445ZM249 73Q261 73 276 76T306 84T336 96T360 112Q345 122 325 122T286 116T257 98T249 73Z" />
<glyph unicode="A" glyph-name="A" horiz-adv-x="564" d="M587 10Q546 -12 515 -3T460 34T422 97T399 167Q374 162 347 154T293 142T237 138T182 154Q168 137 158 118T139 80T122 40T101 1Q82 -10 65 -10T33 -3T6 15T-14 36Q22 117 63 190T147 336T228 484T297
643Q291 656 290 666T290 685T294 704T297 730Q347 738 379 722T430 671T458 590T471 491T478 387T486 290Q491 236 504 185T528 102Q536 88 546 78T565 58T580 37T587 10ZM238 240Q252 237 269 238T305 243T341 249T375 252Q375 276 372 302T365 356T361 408T362
456Q355 456 351 458T340 460Q314 407 285 356T238 240Z" />
<glyph unicode="B" glyph-name="B" horiz-adv-x="674" d="M402 472Q450 458 493 440T571 392Q584 369 598 346T623 298T640 246T645 189Q643 141 623 107T567 49T487 13T389 -4T282 -6T172 7Q132 33 100 65T44 142Q44 151 48 156T57 165T68 172T78 182Q64 265
62 336T58 472Q43 473 40 466T38 450T41 432T37 419Q20 404 -3 407T-48 426T-82 466T-91 520Q-87 544 -69 570T-23 622T41 670T115 709T193 732T267 736Q291 733 316 723T362 698T400 663T422 621Q427 604 426 588T421 554T412 516T402 472ZM139 574Q159 548 179
523T213 466Q220 485 232 500T255 531T275 565T287 607Q266 616 246 614T207 605T171 589T139 574ZM497 176Q505 192 508 211T512 249T507 284T497 311Q482 335 453 344T390 353T321 342T261 317Q245 322 230 327T200 337Q200 307 200 278T204 221T213 169T233
128Q266 116 306 112T383 113T451 133T497 176Z" />
<glyph unicode="C" glyph-name="C" horiz-adv-x="613" d="M421 625Q387 629 348 609T275 552T214 467T180 370Q175 337 177 295T187 214T209 145T244 106Q254 101 268 101T296 102T325 107T350 114Q362 118 373 124T394 138T414 150T436 157Q454 159 478 155T523
139T553 107T555 57Q549 37 525 24T469 1T401 -13T337 -20Q260 -27 201 -2T109 65Q92 86 76 115T48 178T27 245T17 312Q12 390 33 459T88 582Q105 609 130 636T183 685T236 724T280 746Q319 757 357 756T431 744T497 713T549 667Q557 657 566 645T582 621T594 597T598
575Q595 552 581 542T546 532T506 538T470 560Q469 562 462 575T450 596Q442 605 437 613T421 625Z" />
<glyph unicode="D" glyph-name="D" horiz-adv-x="833" d="M350 7Q336 0 330 -10T317 -31T303 -50T278 -63Q267 -66 258 -66T240 -63T219 -58T194 -56Q187 -38 178 -23T158 8T138 40T122 77Q104 134 95 200T79 335T65 475T44 610Q14 604 -18 593T-82 574T-141 563T-191
571T-225 609T-238 688Q-144 730 -36 748T179 761T385 728T561 650Q607 620 649 578T725 487T779 390T804 297Q806 264 801 237T785 185T763 136T741 86Q709 59 664 42T568 15T460 4T350 7ZM255 156Q319 146 384 144T505 151T599 189T647 266Q658 321 644 369T597
457T517 528T413 579T297 609T177 617Q200 573 211 517T229 400T240 277T255 156Z" />
<glyph unicode="E" glyph-name="E" horiz-adv-x="636" d="M483 598Q455 613 423 611T359 595T296 558T240 508T196 453T169 402Q177 395 197 395T242 395T290 396T329 389Q351 365 360 328Q348 308 327 297T279 281T221 274T157 273Q154 242 161 214T182 162T215
121T256 95Q257 94 263 92T276 88T289 85T298 83Q319 83 340 93T381 115T420 136T458 144Q473 142 484 134T505 114T520 91T532 70Q514 45 488 23T428 -14T356 -33T274 -28Q235 -19 202 3T140 54T89 113T46 168Q16 257 19 335T50 477T125 592T231 679Q255 693 288
708T358 733T433 741T508 721Q523 713 547 692T590 641T614 580T599 518Q593 510 584 507T564 503T545 503T532 507Q506 518 496 543T483 598Z" />
<glyph unicode="F" glyph-name="F" horiz-adv-x="594" d="M673 740Q691 725 704 706T729 665Q727 654 721 648T708 636T692 627T679 615Q619 614 560 608T445 594T336 575T239 558Q235 545 233 526T230 488T227 452T224 429Q249 423 274 427T326 437T381 447T443
447Q460 432 471 413T493 372Q469 351 437 338T368 316T294 301T218 285Q215 244 216 208T221 138T227 69T232 -2Q216 -11 198 -17T150 -20Q139 -14 132 -5T120 14T108 35T95 55Q90 79 90 107T92 164T94 222T89 279Q86 292 79 302T65 323T53 343T50 366Q52 376
57 382T69 393T83 402T95 414Q91 450 95 479T101 540Q94 554 78 559T45 570Q40 596 33 617T20 665Q35 674 53 680T101 683Q110 722 129 735T188 740Q198 738 206 732T221 718T235 704T250 696Q269 691 292 693T340 701T391 712T443 720Q505 725 563 726T673 740Z"
/>
<glyph unicode="G" glyph-name="G" horiz-adv-x="666" d="M585 634Q562 615 541 615T497 621T450 631T395 627Q376 622 352 608T302 573T255 530T219 483Q192 439 180 392T168 300T183 214T225 142Q234 133 240 128T253 120T265 114T282 109Q307 102 339 103T400
114T445 139T458 179Q434 173 406 171T355 178T319 209T313 274Q337 282 363 295T418 321T474 344T528 354T578 345T623 305Q620 267 614 226T602 142T594 52T597 -41Q600 -65 607 -86T623 -125T640 -162T654 -200Q641 -212 630 -226T604 -250Q594 -251 587 -249T573
-245T559 -242T541 -243Q521 -222 507 -194T484 -134T467 -67T452 3Q368 -10 298 -2T174 46Q148 66 130 90T93 148Q79 172 67 194T46 243T35 301T36 375Q43 444 78 509T164 626T274 709T389 747Q418 750 449 746T509 729T557 693T585 634Z" />
<glyph unicode="H" glyph-name="H" horiz-adv-x="589" d="M575 26Q558 26 553 14T544 -12Q531 -11 520 -12T499 -15T478 -17T457 -12Q439 17 429 53T412 130T402 214T394 300Q369 298 342 285T282 262Q250 253 217 246T152 231Q148 210 150 187T159 141T173 97T190
58Q179 47 167 37T146 14Q97 9 68 34T28 101Q19 134 17 177T16 270T22 370T30 469T36 560T35 636Q52 652 73 654T115 649T153 627T177 598Q178 536 176 478T158 374Q186 369 211 375T262 389T317 404T382 406Q382 439 384 480T389 567Q389 590 388 613T385 659T386
702T394 741Q415 746 438 746T482 739T517 719T538 686Q541 673 540 655T535 616T529 572T524 523Q521 456 522 388T530 255T547 132T575 26Z" />
<glyph unicode="I" glyph-name="I" horiz-adv-x="689" d="M354 615Q355 587 356 547T359 459T360 362T362 266T363 180T365 114Q382 111 411 114T474 121T545 127T611 124T663 105T690 62Q692 53 686 49T674 41Q662 31 648 27T617 22T580 21T538 20Q482 16 417
6T285 -12T157 -20T47 -6Q31 15 21 40T26 99Q44 108 72 108T130 104T191 96T244 93Q249 135 249 197T248 328T244 463T244 578Q224 579 198 575T144 566T90 561T45 569T17 600T14 662Q67 665 129 680T258 710T393 730T527 720Q561 710 582 699T622 662Q630 650
636 644T637 625Q631 602 615 599T578 602T535 618T496 631Q454 636 421 628T354 615Z" />
<glyph unicode="J" glyph-name="J" horiz-adv-x="616" d="M716 749Q732 713 727 691T704 655T656 634T596 621T535 611T484 595Q520 558 539 508T562 401T558 287T530 178T481 85T414 20Q387 9 356 -2T290 -21T222 -30T155 -22Q125 -13 97 7T51 56T31 123T50 202Q88
212 108 204T142 180T167 146T198 119Q226 110 252 120T302 146Q330 165 359 205T405 293T423 394T394 490Q385 503 373 512T347 528T321 544T296 567Q261 560 223 552T147 539T71 536T1 553Q-5 565 -12 581T-23 614T-27 650T-20 687Q43 681 106 688T231 709T354
736T476 760T597 768T716 749Z" />
<glyph unicode="K" glyph-name="K" horiz-adv-x="753" d="M172 514Q195 526 225 543T290 579T358 620T425 662Q450 678 469 693T509 711Q530 714 554 708T599 687T630 652T635 605Q632 591 613 577T568 549T519 523T481 501Q459 485 430 469T369 436T310 400T263
360Q378 316 488 269T705 171Q727 152 736 131T742 89T722 51T677 23Q618 57 559 89T437 151T305 203T158 241Q155 219 155 191T159 135T168 79T179 30Q170 20 161 10T141 -7T117 -18T88 -19Q54 -13 37 19T14 98T8 197T11 297Q12 331 14 367T17 439T19 508T17 570Q16
588 12 607T4 644T-3 675T-4 697Q3 730 24 740T69 746T117 725T151 690Q158 671 161 648T167 601T170 555T172 514Z" />
<glyph unicode="L" glyph-name="L" horiz-adv-x="562" d="M207 671Q177 545 160 402T153 108Q193 103 237 110T327 126T417 137T507 126Q516 114 522 101T531 75T529 49T512 24Q465 12 416 11T314 -1Q282 -6 251 -14T188 -29T126 -37T63 -30Q51 -21 45 -10T36
18T31 54T27 102Q24 136 22 165T20 224T19 284T21 354Q24 426 36 495T57 623Q59 638 59 652T59 679T61 702T70 718Q85 735 106 735T147 725T183 700T207 671Z" />
<glyph unicode="M" glyph-name="M" horiz-adv-x="774" d="M783 61Q787 46 792 34T803 10T811 -10T813 -30Q811 -54 794 -70T759 -85Q744 -84 729 -65T702 -20T680 32T667 73Q658 112 654 151T646 228T640 304T631 377Q622 379 616 373T605 357Q588 308 570 277T537
228Q532 223 528 219T518 211Q513 206 510 203T503 198Q499 195 497 195Q445 217 399 245T311 304T229 370T149 438Q151 411 149 377T145 305T141 223T143 134Q145 110 149 85T153 39T144 4T113 -12Q85 -14 68 11T41 73T27 154T21 231Q19 283 22 339T21 450Q16
514 -1 576T-33 695V707Q0 718 25 711T70 686T106 647T137 604Q194 529 268 462T430 347Q465 376 491 415T544 496Q564 534 582 566Q597 593 611 617T631 646Q650 652 668 651T702 643T731 626T753 604Q746 545 744 475T744 331T757 188T783 61Z" />
<glyph unicode="N" glyph-name="N" horiz-adv-x="717" d="M660 28Q640 -1 616 -4T566 5T516 39T471 82Q432 121 392 170T315 269T242 367T177 451Q177 427 173 392T163 316T155 231T156 144Q159 116 163 86T166 32T154 -9T115 -28Q95 -29 85 -23T68 -6T53 17T32
40Q24 101 27 160T36 279T48 400T54 526Q54 541 55 558T54 587Q49 611 37 628T15 662T0 696T5 738Q42 753 71 744T125 711T169 658T211 601Q250 550 289 493T369 379T451 270T538 178Q545 230 551 294T558 426T554 561T531 684Q527 697 520 709T506 734T492 757T484
779Q475 831 493 857T559 873Q580 868 597 845T626 788T647 718T660 650Q666 615 669 577T675 502T678 429T682 362Q686 266 679 188T660 28Z" />
<glyph unicode="O" glyph-name="O" horiz-adv-x="662" d="M331 755Q379 763 417 747T487 701T542 631T585 553Q601 520 617 477T641 385T645 288T617 192Q606 172 583 146T526 93T454 43T371 3T284 -17T199 -10Q177 -4 159 9T124 40T96 77T73 116Q47 162 31 221T11
343T22 467T73 578Q86 596 99 609T127 635T162 659T205 686Q224 698 238 709T266 729T295 745T331 755ZM338 521Q322 529 311 541T282 559Q278 551 273 550T263 548T251 549T237 546Q201 531 177 494T142 411T131 313T147 220T190 148T263 116Q295 114 339 132T424
181T497 250T534 324Q541 369 535 406T514 476T476 537T428 591Q424 598 414 597Q407 566 387 549T338 521Z" />
<glyph unicode="P" glyph-name="P" horiz-adv-x="474" d="M229 342Q234 297 235 244T247 137Q250 122 255 110T265 85T272 61T272 36Q269 24 261 15T244 -1T224 -11T205 -13Q176 -9 161 17T138 83T129 170T123 263T111 348T84 409Q92 436 94 461T91 517Q87 522
79 523T62 524T42 522T24 522Q-22 569 -12 615T48 697Q66 709 88 721T138 743T195 756T259 757Q300 753 338 735T406 689T456 626T484 555T485 482T451 414Q434 394 413 382T364 363T303 351T229 342ZM332 606Q316 618 290 623T236 628T185 621T151 601Q165 592
177 582T198 558T210 525T211 481Q237 472 261 473T307 481T345 501T373 528Q368 538 365 548T357 569T348 589T332 606Z" />
<glyph unicode="Q" glyph-name="Q" horiz-adv-x="643" d="M405 711Q412 698 417 688T429 663Q434 651 434 634T441 603Q451 582 471 569T507 537Q519 522 533 501T561 459Q582 426 593 388T605 312T590 237T543 170Q553 159 568 147T599 122T628 95T645 65T644
33T615 1Q587 2 567 10T530 31T500 58T471 86Q440 72 416 57T367 29T310 10T236 8Q191 13 153 37T85 97T38 177T14 266Q4 342 25 416T86 555T175 668T272 741Q285 748 303 746T339 738T375 723T405 711ZM308 633Q284 616 252 586T188 516T135 427T110 326Q108 298
111 269T124 215T147 168T182 134Q208 118 235 117T288 123T339 142T387 164Q376 182 359 198T328 233T305 272T302 320Q332 336 355 330T398 308T437 274T477 248Q511 295 510 334T489 406T439 467T387 519Q358 518 342 530T314 561Q316 571 323 577T337 588T350
601T356 621Q341 637 308 633Z" />
<glyph unicode="R" glyph-name="R" horiz-adv-x="632" d="M275 320Q281 303 298 294T339 276T389 260T439 238Q471 221 506 195T572 145Q593 130 613 114T648 82T666 48T659 13Q644 -10 619 -10T570 1T526 34T500 75Q421 117 337 153T164 225Q163 211 160 197T154
169T150 139T152 105Q154 88 161 75T175 51T187 30T191 7Q188 -23 173 -37T136 -53T90 -45T45 -13Q46 3 42 16T33 42T22 68T14 98Q6 152 16 212T38 331T56 447T49 553Q27 545 4 535T-42 522T-85 527T-121 566Q-143 609 -127 636T-71 678T25 697T140 698T253 685T341
665Q362 659 381 649T418 629T455 609T492 593Q517 554 517 523T502 467T457 421T396 383T331 350T275 320ZM122 567Q114 566 114 554Q124 543 139 536T167 519T187 497T190 460Q215 461 235 468T273 485T307 508T341 530Q323 540 299 545T246 554T186 560T122
567Z" />
<glyph unicode="S" glyph-name="S" horiz-adv-x="557" d="M475 485Q459 479 441 471T404 456T364 448T324 452Q327 471 333 485T346 515T355 548T356 591Q341 599 317 598T266 587T212 561T165 525T133 480T125 431Q128 410 146 395T189 367T245 343T304 319Q329
309 356 297T408 271T454 243T489 214Q497 205 510 183T532 131T545 71T535 15Q512 -27 456 -45T324 -58Q269 -54 216 -42T115 -12T30 29T-34 81Q-26 97 -23 117T-14 154Q8 162 24 159T56 149T87 134T125 127Q136 123 139 112T151 95Q176 88 211 80T284 69T353
72T402 102Q404 120 399 131T387 152T371 168T356 187Q317 202 273 217T187 250T105 289T38 340T-4 406T-14 492Q-10 526 9 560T59 625T128 680T208 716T291 729T370 709Q382 703 395 689T422 663Q440 649 454 642T475 623Q484 606 485 591T485 560T480 526T475
485Z" />
<glyph unicode="T" glyph-name="T" horiz-adv-x="752" d="M732 688Q734 671 732 658T726 635T715 615T703 596Q687 587 674 589T649 598T624 612T596 620Q548 622 520 618T467 608T412 594T329 583Q338 568 357 561T396 545T434 524T457 483Q463 457 461 421T456
344T449 257T450 170Q451 153 456 134T466 96T476 62T479 40Q477 28 471 19T458 2T445 -13T436 -28Q395 -36 358 -22T307 25Q302 37 303 49T306 74T311 102T314 132Q314 177 311 229T303 334T295 434T293 521Q298 537 307 548T322 574Q302 577 278 574T227 566T175
555T125 550T79 557T43 583Q35 592 29 609T20 646T20 685T36 719Q94 716 155 725T279 746T402 767T522 775T633 753T732 688Z" />
<glyph unicode="U" glyph-name="U" horiz-adv-x="657" d="M86 741Q114 744 132 738T163 719T186 692T208 664Q182 610 165 539T146 394T163 257T231 153Q262 153 290 167T344 202T390 249T429 298Q441 312 451 336T468 388T474 447T467 503T441 550T391 581Q391
601 385 622T373 663T365 703T368 741Q367 745 370 746T376 748Q405 749 428 743T470 724T505 692T537 649Q551 625 568 585T599 498T619 404T620 321Q619 314 613 295T598 253T581 209T566 176Q564 171 557 161T546 142Q539 133 533 128T521 115Q496 86 455 56T365
6T265 -14T170 15Q150 29 132 52T97 103T67 164T40 229Q30 255 18 279T2 321Q-8 377 -6 436T7 552T39 657T86 741Z" />
<glyph unicode="V" glyph-name="V" horiz-adv-x="622" d="M283 -30Q268 -32 258 -28T241 -17T225 -5T204 3Q177 81 146 159T87 318T35 481T0 649Q53 672 83 658T131 608T160 523T185 424Q202 363 223 312T256 221Q291 252 321 306T377 419Q400 475 429 530T475
636Q483 661 484 685T487 735Q516 747 548 741T604 716T640 665T638 596Q612 582 594 558T561 505T534 443T508 379Q484 325 460 271T408 165T349 63T283 -30Z" />
<glyph unicode="W" glyph-name="W" horiz-adv-x="769" d="M588 0Q532 0 495 19T430 67T381 130T334 197Q320 188 309 163T285 106T259 43T229 -9T191 -31T142 -7Q126 9 111 38T81 107T55 190T34 281Q22 338 12 387T-8 483T-23 579T-30 681Q-11 693 8 693T44 688T76
670T103 650Q113 598 120 545T136 440T153 336T174 235Q189 248 199 265T219 301T237 339T257 375Q285 380 304 380T339 377T366 362T391 337Q396 331 406 317T429 283T455 244T481 206T501 177T513 165Q521 164 530 172T550 195T569 226T586 261T599 294T607 318Q617
365 617 421T611 534T595 640T576 726Q581 727 581 731T582 739Q624 751 664 736T730 692T760 627T735 560Q742 467 740 383T720 228T671 98T588 0Z" />
<glyph unicode="X" glyph-name="X" horiz-adv-x="692" d="M709 677Q709 665 709 656T707 638T698 621T681 600Q649 555 617 517T551 442T486 370T421 295Q441 265 470 245T526 196Q545 181 557 170T578 148T596 129T619 110Q621 95 620 77T613 43T596 17T568 9Q557
9 543 18T510 40Q489 55 466 75T421 118T377 163T339 206Q327 198 318 192T299 177T281 157T261 130Q241 111 225 86T192 34T157 -18T116 -62Q84 -66 67 -61T33 -36Q13 -4 13 25T20 84Q24 100 36 116T64 149T97 181T128 212Q159 246 188 277T242 334Q207 403 168
468T84 594Q67 626 65 653T71 703Q111 714 140 704T191 670T229 613T261 547T293 483T332 435Q355 455 378 477T421 525Q424 528 432 535T449 549T466 564T478 577Q496 599 511 616T539 651T562 690T581 742Q606 743 624 738T658 723T685 702T709 677Z" />
<glyph unicode="Y" glyph-name="Y" horiz-adv-x="447" d="M228 472Q174 510 120 546T20 629Q21 641 17 657T10 690T12 719T35 737Q49 740 64 732T95 711T125 682T153 656Q166 645 181 638T213 619Q230 606 245 595T277 586Q295 589 308 607T333 651T352 702T368
746Q371 751 374 756T385 764Q403 763 420 758T451 745T474 725T487 698Q489 683 479 658T453 606T423 557T401 522Q368 469 337 424T277 323Q275 317 273 313T268 302Q264 296 262 291T256 279Q245 257 237 234T218 189Q205 159 193 134T172 83T155 28T143 -37Q142
-49 137 -73T120 -120T93 -157T52 -166Q33 -161 25 -139T15 -89T16 -32T25 16Q38 67 62 119T105 220Q136 292 166 354T228 472Z" />
<glyph unicode="Z" glyph-name="Z" horiz-adv-x="660" d="M506 388Q513 385 524 387T548 391T573 392T595 383Q607 361 602 345T585 316T556 293T527 274Q498 268 471 267T417 266T367 265T320 258Q306 254 292 245T266 225T241 203T217 181Q191 158 170 134T129
87Q142 78 162 79T201 82Q264 89 326 99T449 113Q456 113 459 118T463 130T467 142T476 150Q521 139 559 122T614 67Q611 53 606 42T599 15Q563 4 517 -4T419 -18T316 -30T217 -43Q181 -48 151 -50T95 -50T50 -36T15 -1Q5 50 12 88T37 155T81 209T134 258Q126 268
119 282T108 313T104 348T108 383Q135 389 160 389T208 388T252 387T294 393Q310 398 324 407T353 429T380 453T408 475Q437 497 466 517T516 563Q495 570 463 576T395 588T320 598T248 605Q217 607 188 607T133 610T89 623T61 656Q54 675 58 698T61 744Q69 748
76 752T92 759Q118 748 150 742T217 731T291 723T367 713Q401 708 437 703T506 690T567 671T614 645Q635 629 644 607T652 560T640 513T609 470Q597 458 582 449T552 431T525 412T506 388Z" />
<glyph unicode="[" glyph-name="bracketleft" horiz-adv-x="383" d="M339 580Q331 559 308 555T257 551T201 553T153 545Q150 493 147 440T142 332T142 224T153 117Q177 117 208 120T270 123T326 110T365 69Q357 46 337 31T289 5T229 -14T166 -30Q156 -32 153
-37T141 -43Q125 -45 112 -42T88 -34T66 -21T43 -8Q25 65 19 146T11 312T12 481T17 650Q16 664 22 669T36 679Q69 678 103 678T169 679T231 674T283 657Q286 645 297 636T319 619T337 602T339 580Z" />
<glyph unicode="\" glyph-name="backslash" horiz-adv-x="543" d="M70 742Q115 646 157 552T250 366Q301 276 372 204T531 64Q532 44 535 24T521 -14Q506 -14 496 -13T476 -6T454 11T424 42Q333 139 257 240T119 455Q96 498 76 544T30 636Q19 659 8 681T-9 729Q-1
748 22 747T70 742Z" />
<glyph unicode="]" glyph-name="bracketright" horiz-adv-x="521" d="M510 602Q498 541 488 473T473 332T470 184T484 33Q470 22 454 13T423 -7Q389 4 352 3T279 -5T209 -17T147 -21T99 -2T69 52Q87 77 116 90T179 110T251 122T324 134Q328 171 329 220T331 321T334
426T343 522Q311 527 274 525T199 522T126 521T64 534T19 569T1 636Q22 651 48 654T106 656T170 651T237 650Q281 652 322 659T399 666T463 654T510 602Z" />
<glyph unicode="^" glyph-name="asciicircum" horiz-adv-x="409" d="M230 785Q270 642 385 565Q390 541 388 517T371 481Q359 481 346 483T324 490Q318 493 314 504T304 523Q295 535 287 544T271 562T255 580T239 602Q229 617 217 637T192 673Q179 663 166 648T139
614T116 577T98 541Q93 530 93 521T91 505T85 492T71 485Q57 483 46 491T28 511T18 537T15 561Q15 572 26 588T47 621Q70 661 100 704T150 790Q167 802 189 797T230 785Z" />
<glyph unicode="_" glyph-name="underscore" horiz-adv-x="500" d="M477 -87Q420 -83 365 -91T255 -110T146 -127T36 -126Q28 -112 18 -94T12 -58Q30 -43 53 -43T95 -43Q137 -37 179 -29T265 -14T352 -4T442 -4Q461 -15 474 -36T477 -87Z" />
<glyph unicode="`" glyph-name="grave" horiz-adv-x="302" d="M132 722Q146 709 155 697T173 673T191 648T215 618Q227 602 239 588T260 560T268 535T257 512Q242 499 225 503T190 523T152 562T113 609T76 654T42 688Q39 692 40 695T40 700Q62 726 85 728T132 722Z" />
<glyph unicode="a" glyph-name="a" horiz-adv-x="598" d="M436 181Q442 216 425 255T376 326T301 377T212 390Q191 388 176 377T148 352T121 329T89 318Q73 318 58 326T32 346T14 374T10 404Q13 428 37 447T97 478T172 496T248 498Q277 495 306 485T363 461T414
428T457 390Q475 372 486 358T507 329T524 296T544 253Q554 232 564 211T580 165T586 113T580 51Q569 42 556 36T537 15Q527 15 517 15T498 15T482 19T472 29Q446 14 412 -5T337 -41T254 -65T169 -64Q142 -58 116 -41T71 1T40 52T32 102Q35 126 58 152T117 199T199
231T291 238Q315 236 334 229T369 214T402 196T436 181ZM198 59Q215 59 238 63T284 75T328 93T364 116Q343 131 312 131T254 123T210 96T198 59Z" />
<glyph unicode="b" glyph-name="b" horiz-adv-x="519" d="M187 400Q215 400 244 397T303 386T359 366T409 335Q429 319 446 294T475 241T492 183T495 128Q492 104 480 81T447 38T400 4T345 -15Q317 -20 276 -20T191 -15T110 1T51 27Q40 35 28 56T12 99T19 138T66
156Q62 174 59 188T53 217T48 247T43 283Q46 328 46 380T44 488T42 598T44 707Q63 716 85 717T127 714T163 700T187 679Q202 657 201 624T194 552T184 474T187 400ZM359 192Q359 217 343 235T301 263T248 270T194 249Q192 227 193 209T198 175T206 143T216 113Q240
103 265 106T311 121T345 152T359 192Z" />
<glyph unicode="c" glyph-name="c" horiz-adv-x="485" d="M462 352Q454 344 448 336T434 320T420 307T403 300Q384 298 368 307T337 328T307 350T277 360Q248 358 230 340T201 294T183 230T173 160Q190 132 219 125T282 117T350 121T410 117T451 86T462 11Q411
-15 356 -22T248 -19T149 16T71 81T23 174T17 293Q22 326 41 360T87 424T149 474T217 501Q259 507 300 499T374 471T431 420T462 352Z" />
<glyph unicode="d" glyph-name="d" horiz-adv-x="568" d="M578 64Q564 31 531 22T461 25Q423 -8 374 -25T273 -45T174 -36T89 2T32 68T18 162Q21 192 39 222T87 278T152 325T228 354T308 361T383 338Q379 390 378 438T377 533T380 625T383 716Q401 727 421 727T461
718T496 697T520 671Q524 592 521 505T518 336T531 183T578 64ZM155 91Q182 73 215 71T282 76T347 95T402 116V162Q378 178 354 195T317 240Q248 231 205 197T155 91Z" />
<glyph unicode="e" glyph-name="e" horiz-adv-x="398" d="M341 269Q332 267 325 268T312 271T299 274T283 274Q280 294 270 306T252 333Q213 320 187 295T141 238Q164 235 179 218T198 182T188 147T141 133Q142 121 148 113T164 101T182 94T199 91Q216 89 232
95T263 109T294 119T325 116Q334 113 338 107T345 92T351 76T362 64Q349 44 334 24T299 -4Q268 -17 239 -16T182 -5T131 20T88 50Q68 62 53 84T30 122Q6 173 13 225T48 321T118 395T204 433Q233 438 259 432T314 418Q329 406 343 388T364 349T367 307T341 269Z"
/>
<glyph unicode="f" glyph-name="f" horiz-adv-x="404" d="M349 470Q332 491 318 517T301 578Q258 590 231 579T190 543T173 482T176 411T197 341T230 286Q256 287 281 283T326 270T358 248T371 216Q357 187 337 181T274 178Q274 155 278 136T287 100T298 65T306
27Q292 7 276 -3T236 -11Q212 -8 199 11T178 56T167 109T160 156Q101 144 62 165T14 238Q25 263 54 267T122 270Q104 309 86 355T59 447T53 537T84 616Q87 620 97 629T120 649T145 669T165 681Q193 694 224 695T286 690T342 667T387 632Q403 615 415 588T428 535T411
489T349 470Z" />
<glyph unicode="g" glyph-name="g" horiz-adv-x="437" d="M441 -255Q430 -266 423 -280T404 -302Q396 -306 390 -306T377 -303T363 -299T347 -296Q337 -320 323 -337T291 -369T249 -397T196 -427Q167 -444 136 -459T72 -482T8 -486T-53 -458Q-65 -448 -78 -429T-100
-386T-113 -332T-111 -271Q-104 -239 -76 -199T-10 -123T70 -59T149 -26Q186 -21 215 -32T270 -62Q272 -33 273 -17T275 7T277 21T279 33T281 53T284 90Q270 91 258 87T234 77T210 66T185 59Q180 59 167 61T138 68T108 77T87 86Q71 96 58 114T37 155T25 202T23
248Q26 270 45 300T93 356T159 392T232 387Q249 380 259 363T284 335Q294 327 306 322T329 311T350 296T362 273Q401 269 414 251T427 204T416 141T398 70Q393 49 391 37T387 17T385 3T383 -14Q380 -39 378 -56T376 -87T376 -114T383 -147Q387 -163 396 -174T415
-195T432 -219T441 -255ZM143 164Q178 162 211 178T258 226Q247 227 241 223T229 213T218 204T201 201Q193 203 188 209T179 221T168 234T153 242Q144 227 140 206T143 164ZM227 -147Q215 -145 208 -140T191 -130Q170 -137 151 -149T116 -175T84 -204T55 -234Q40
-251 29 -265T12 -294T3 -330T3 -380Q31 -388 55 -384T102 -370T145 -345T186 -317Q217 -298 246 -278T306 -246Q298 -236 294 -222T286 -194T281 -164T273 -136Q261 -137 253 -143T227 -147Z" />
<glyph unicode="h" glyph-name="h" horiz-adv-x="463" d="M147 629Q155 621 159 615T167 602T171 590T175 577Q175 560 175 534T175 481T176 427T176 385Q204 391 235 390T297 382T351 363T390 333Q414 304 420 263T428 175T433 79T455 -13Q464 -24 476 -33T498
-52T516 -74T520 -103Q519 -109 513 -117T498 -133T480 -147T462 -154Q424 -160 397 -141T350 -86T317 -5T296 89T282 182T273 262Q242 255 218 244T169 221Q164 195 163 168T165 115T174 64T188 21Q180 4 167 -9T136 -29T99 -36T59 -25Q44 1 39 45T33 141T32 247T29
347Q22 385 17 417T10 482T8 548T11 622Q22 636 38 641T73 645T111 640T147 629Z" />
<glyph unicode="i" glyph-name="i" horiz-adv-x="249" d="M218 555Q201 544 181 534T141 518T99 515T59 531Q47 539 38 554T22 587T12 620T11 642Q16 667 34 678T76 690T126 681T174 653T208 610T218 555ZM218 62Q209 51 202 40T186 20T168 5T146 -2Q117 -5 97
9T62 49T40 108T29 177T25 247T27 308Q72 321 103 317T155 297T186 255T204 197T212 130T218 62Z" />
<glyph unicode="j" glyph-name="j" horiz-adv-x="320" d="M223 557Q209 555 199 551T178 542T157 536T133 538Q121 542 108 558T86 595T74 640T79 685Q221 694 223 557ZM-97 -52Q-66 -45 -50 -54T-24 -79T-8 -113T12 -144Q29 -132 42 -112T67 -67T86 -15T102 39Q108
60 116 89T131 151T142 214T145 270Q143 290 136 308T124 343T118 377T128 412Q146 415 160 413T188 406T214 394T241 382Q264 341 271 297T271 185Q268 162 263 133T251 73T235 10T217 -52Q206 -85 194 -118T167 -178T138 -227T108 -258Q93 -270 70 -279T12 -276Q-3
-271 -25 -256T-67 -221T-103 -178T-120 -131Q-122 -111 -118 -91T-97 -52Z" />
<glyph unicode="k" glyph-name="k" horiz-adv-x="534" d="M161 361Q216 393 264 430T356 512Q416 514 451 490T482 424Q480 410 469 397T441 371T408 346T375 323Q339 296 305 278T255 241Q274 229 294 217T337 191Q354 180 375 165T419 140Q445 130 474 126T529
114T575 94T601 52Q593 36 580 24T557 -5Q493 -7 440 8T340 47T247 98T154 146Q154 128 156 114T162 85T169 57T174 27Q163 26 157 21T144 10T132 -2T117 -11Q92 -11 74 -5T35 8Q18 92 18 179T20 353T22 525T3 694Q9 709 24 714T56 720T88 715T110 707Q141 690
151 650T162 559T160 456T161 361Z" />
<glyph unicode="l" glyph-name="l" horiz-adv-x="221" d="M162 281Q166 206 177 141T196 6Q184 -2 169 -8T138 -15T105 -14T76 0Q71 14 69 30T61 61Q51 146 45 231T36 387Q32 469 30 545Q32 574 29 597T24 641T23 681T35 723Q53 728 67 727T93 722T118 711T145
700Q157 663 160 612T163 503T161 389T162 281Z" />
<glyph unicode="m" glyph-name="m" horiz-adv-x="587" d="M445 306Q421 319 409 309T391 276T384 224T379 168Q374 118 370 74T362 6Q353 1 347 -5T334 -17T318 -27T296 -30Q283 -21 276 -7T263 24T253 58T240 89Q248 117 255 150T267 216T273 281T272 336Q248
342 225 340T180 330T142 309T114 281Q121 249 119 210T122 126Q123 115 127 104T134 82T139 61T139 42Q135 22 115 7T74 -6Q61 -4 50 10T29 43T15 82T8 115Q3 141 6 168T8 222Q6 249 2 272T-5 315T-9 354T-8 392Q1 394 6 396T15 400T24 404T37 407Q62 428 99 444T176
467T256 467T324 432Q342 444 362 446T402 447T442 438T481 426Q500 417 510 405T528 383Q548 351 561 298T571 175Q569 147 566 120T564 65Q565 51 568 30T568 -11T554 -43T517 -53Q506 -52 495 -40T475 -10T460 27T451 60Q446 93 447 127T451 195T453 257T445
306Z" />
<glyph unicode="n" glyph-name="n" horiz-adv-x="423" d="M271 342Q254 346 235 344T198 338T162 326T131 312Q125 226 135 156T160 19Q134 -12 90 -22Q54 2 38 49T16 154T10 272T8 383Q11 392 18 397T34 406T54 411T72 418Q95 428 128 442T198 464T272 469T342
441Q354 432 364 417T381 385T394 349T400 312Q402 289 399 264T393 215T386 166T383 119Q383 96 391 78T394 43Q391 34 383 25T364 8T341 -2T318 -4Q308 -2 300 7T284 30T273 57T266 84Q261 115 264 149T272 216T278 282T271 342Z" />
<glyph unicode="o" glyph-name="o" horiz-adv-x="462" d="M128 405Q134 406 150 407T187 410T227 411T258 410Q266 408 281 400T312 380T342 356T365 337Q373 328 383 315T404 287T422 255T432 226Q440 181 430 151T398 95Q376 71 340 48T262 12T176 -1T94 23Q64
41 43 78T12 160T7 252T31 337Q45 363 67 381T128 405ZM223 259Q211 271 198 275T173 279T153 269T141 248Q140 246 137 245T133 241Q128 220 129 200T139 163T161 137T195 127Q212 127 233 133T271 152T300 180T308 217Q305 236 288 246T255 270Q246 268 240 264T223
259Z" />
<glyph unicode="p" glyph-name="p" horiz-adv-x="483" d="M152 74Q141 36 142 -5T150 -91T163 -181T170 -270Q128 -299 102 -293T61 -258T39 -182T30 -83T26 21T22 114Q20 126 18 146T15 188T13 232T15 273Q13 290 22 294T40 305Q32 319 20 334T0 367T-9 403T3
445Q76 461 149 461T284 444T391 385T454 279Q458 265 461 249T466 221Q462 201 450 186T429 153Q334 69 152 74ZM77 305Q106 294 121 268T152 213Q175 210 204 212T260 223T305 244T325 279Q309 297 278 309T210 324T138 324T77 305Z" />
<glyph unicode="q" glyph-name="q" horiz-adv-x="385" d="M258 402Q270 427 295 435T347 439T397 419T430 381Q398 329 368 277T310 168T262 49T229 -86Q251 -84 275 -74T324 -49T375 -20T430 7Q442 11 457 13T488 22Q501 26 519 33T556 44T595 44T633 22Q630
3 620 -10T596 -33T567 -50T538 -65Q499 -89 456 -112T369 -157T280 -204T193 -253Q190 -294 188 -330T187 -400T199 -465T229 -527Q247 -518 261 -506T288 -478T312 -448T337 -420Q365 -409 388 -417T430 -441Q440 -467 432 -492T406 -541T368 -584T330 -620Q315
-634 298 -648T262 -671T220 -678T171 -656Q159 -647 143 -620T111 -560T85 -497T70 -448Q66 -419 69 -385T70 -324Q58 -325 49 -328T31 -335T11 -340T-15 -339Q-28 -329 -39 -316T-59 -288T-69 -255T-66 -217Q-29 -204 6 -194T85 -167Q96 -91 115 -26T150 107Q147
113 140 114T122 116T102 114T85 114Q43 149 24 195T7 288T33 381T99 459Q109 467 131 466T179 457T226 435T258 402ZM129 266Q153 264 158 279T164 316Q152 317 146 313T136 301T132 284T129 266Z" />
<glyph unicode="r" glyph-name="r" horiz-adv-x="503" d="M496 292Q481 280 457 279T403 281T343 288T281 293T223 286T175 258Q168 219 166 189T175 124Q178 112 185 102T198 83T210 66T215 49Q216 40 213 33T206 19T199 3T196 -14Q170 -28 148 -26T107 -12T73
16T48 49Q41 78 37 110T30 176T24 248T14 327Q12 343 9 357T6 383T10 408T28 433Q68 420 119 419T223 417T326 411T418 384Q441 371 464 349T496 292Z" />
<glyph unicode="s" glyph-name="s" horiz-adv-x="404" d="M199 357Q176 355 160 348T123 338Q136 315 163 297T222 262T285 226T338 185Q343 180 350 172T362 157Q369 149 371 144T377 134Q400 91 391 54T351 -18Q331 -30 301 -34T236 -37T164 -29T94 -14T34 5T-5
26Q-19 36 -29 51T-43 82T-46 116T-31 147Q-3 148 22 141T70 124T115 102T161 86T209 82T262 102Q242 129 210 150T143 190T75 230T20 278T-9 341T1 427Q23 445 53 463T117 491T184 502T250 484Q260 478 266 470T279 454T293 438T313 427Q316 410 319 392T323 356T319
325T300 300Q281 295 264 295T230 307Q221 308 218 314T213 329T209 346T199 357Z" />
<glyph unicode="t" glyph-name="t" horiz-adv-x="383" d="M265 644Q270 619 265 597T249 553T226 513T206 474Q233 469 259 465T308 452T349 430T376 395Q371 373 357 361T322 343T277 335T230 329T187 319T154 298Q155 258 154 216T160 141Q170 139 176 141T189
145T203 148T220 148Q230 140 238 130T253 110T268 89T285 69Q277 37 261 14T220 -16Q183 -25 153 -15T98 18T57 73T31 141T19 212T23 278Q4 293 -18 304T-61 331Q-61 357 -61 382T-48 422Q-25 427 -1 429T50 435Q68 504 93 567T141 696Q160 701 177 697T210 685T239
665T265 644Z" />
<glyph unicode="u" glyph-name="u" horiz-adv-x="494" d="M447 382Q457 329 465 277T465 174Q456 111 418 65T326 -4T210 -20T89 30Q66 60 47 105T18 201T9 307T30 408Q57 412 76 407T108 393T132 370T153 342Q151 312 148 277T145 211T157 157T193 128Q210 124
235 134T285 163T327 205T349 252Q352 276 346 296T333 336T321 374T322 414Q337 425 354 424T387 416T419 398T447 382Z" />
<glyph unicode="v" glyph-name="v" horiz-adv-x="532" d="M230 -6Q198 0 176 22T137 75T106 137T74 196Q64 213 53 229T33 265T18 305T14 354Q22 362 32 366T49 378Q74 364 98 354T140 324Q152 310 159 293T173 257T189 223T213 196Q237 209 256 229T294 271T330
314T371 351T422 375T488 378Q509 357 512 336T508 293T483 252T445 214T406 179T373 148Q328 100 295 61T230 -6Z" />
<glyph unicode="w" glyph-name="w" horiz-adv-x="577" d="M155 234Q169 239 176 247T190 263T204 277T226 284Q240 285 251 280T273 267T295 251T321 240Q327 227 332 213T345 185T362 163T391 152Q406 173 410 202T413 263T408 325T404 379Q414 397 438 397T487
387T532 357T556 316Q557 308 552 300T543 271Q535 226 533 175T521 79T489 4T417 -27Q387 -27 366 -16T326 13T292 51T257 88Q239 82 226 70T202 44T181 16T155 -8Q138 -5 124 0T92 11Q68 48 51 94T24 190T11 294T10 398Q47 405 77 397T127 368T154 313T155 234Z"
/>
<glyph unicode="x" glyph-name="x" horiz-adv-x="507" d="M313 216Q318 188 344 171T402 134Q421 120 430 113T446 101T460 91T483 76Q482 48 473 30T453 -9Q412 -8 384 6T332 40T287 79T235 113Q200 78 171 40T126 -51Q103 -60 90 -59T69 -48T57 -22T47 16Q42
31 38 43T35 69Q38 93 51 113T81 151T110 180T126 202Q103 230 73 250T16 294Q-13 332 -13 360T11 415Q48 415 73 404T117 377T154 341T192 306Q213 315 231 335T268 378T304 421T344 451Q366 462 383 453T423 427Q439 399 439 378T431 338T406 306T371 277T337
248T313 216Z" />
<glyph unicode="y" glyph-name="y" horiz-adv-x="523" d="M227 71Q198 87 173 107T124 149T77 193T27 235Q25 251 21 268T14 302T10 336T15 370Q37 373 52 370T80 361T102 347T124 333Q142 298 167 273T222 224Q242 201 260 209T295 241Q308 256 318 273T337 310T354
347T374 382Q389 391 409 387T449 371T481 340T495 302Q497 275 482 259T453 224Q430 190 408 150T367 65Q339 -7 316 -77T264 -215Q250 -248 240 -278T220 -340T204 -406T191 -483Q190 -494 190 -519T188 -571T173 -616T137 -635Q114 -635 100 -613T78 -557T69
-488T70 -422Q77 -355 96 -290T139 -163T187 -42T227 71Z" />
<glyph unicode="z" glyph-name="z" horiz-adv-x="463" d="M403 313Q404 300 407 292T412 271Q392 239 366 221T296 193Q277 188 256 187T218 179Q186 167 158 139T107 87Q130 85 155 88T206 95T259 102T315 105Q322 105 325 109T330 117T334 126T342 132Q360 129
372 121T394 103T412 81T430 59Q425 21 407 -2Q373 0 337 -4T264 -13T191 -23T122 -27T61 -18T10 12Q0 56 2 98T28 170Q19 179 13 192T4 222T3 254T15 285Q84 275 146 287T241 336Q220 342 194 340T141 334T87 329T38 336Q19 373 19 429Q54 443 103 446T203 451Q235
452 268 455T330 458T383 454T421 437Q426 433 430 425T440 410Q463 380 451 356T403 313Z" />
<glyph unicode="{" glyph-name="braceleft" horiz-adv-x="360" d="M202 579Q188 551 185 522T184 464T198 412T221 370Q222 359 218 355T208 347T197 341T190 329Q188 322 190 319T197 315T206 312T210 305Q200 283 191 263T173 221T159 176T153 126Q166 121 180
122T208 126T237 134T267 138Q277 128 290 121T313 107T330 90T336 64Q336 53 330 42T313 20T291 2T270 -8Q265 -10 248 -11T210 -12T169 -11T136 -6Q96 3 74 26T44 85T38 164T54 258Q44 269 33 279T8 297Q13 324 7 343T0 386Q4 399 14 404T35 414T58 422T77 435Q77
456 74 479T70 526T69 573T78 619Q82 631 90 640T108 657T124 673T135 691Q150 693 166 697T200 704T235 707T269 701Q281 696 292 686T312 665T326 642T330 623Q327 602 314 595T283 586T243 584T202 579Z" />
<glyph unicode="|" glyph-name="bar" horiz-adv-x="170" d="M55 763Q85 767 101 758T125 729T132 681T128 621T120 552T114 480Q112 419 110 353T109 227Q112 180 119 142T134 68T145 0T143 -68Q126 -82 112 -79T86 -64T65 -36T47 -7Q48 24 45 57T36 124T27 193T21
264Q19 315 23 373T29 492Q30 527 30 564T30 635T34 700T47 751Q51 753 51 758T55 763Z" />
<glyph unicode="}" glyph-name="braceright" horiz-adv-x="407" d="M258 418Q270 412 288 407T322 394T352 376T368 347Q371 323 360 308T331 280T296 251T269 212Q263 194 263 175T265 135T266 94T258 54Q248 24 228 8T182 -15T128 -22T73 -22Q49 0 43 26T30
86Q35 96 47 99T76 102T107 102T134 108Q140 145 142 184T144 271Q133 281 129 293T122 318T119 345T111 374Q120 397 127 422T141 473T156 522T176 566Q167 570 158 568T140 562T120 557T96 560Q81 580 72 607T62 669Q98 688 140 697T214 696Q254 683 272 651T294
579T287 495T258 418Z" />
<glyph unicode="~" glyph-name="asciitilde" horiz-adv-x="623" d="M605 333Q603 315 593 305T570 287T541 277T514 269Q482 263 452 264T392 271T335 286T277 306Q259 314 242 322T208 338T176 348T144 350Q127 348 115 338T91 317T68 298T40 291Q14 293 7 309T3
346T19 386T45 415Q53 420 64 425T87 433T107 439T122 442Q158 446 190 434T254 406T322 373T401 350Q435 345 465 351T521 361T568 361T605 333Z" />
</font>
</defs>
</svg>
