<?xml version="1.0" encoding="utf-8"?>
<!-- Generator: Adobe Illustrator 16.2.1, SVG Export Plug-In . SVG Version: 6.00 Build 0)  -->
<!DOCTYPE svg PUBLIC "-//W3C//DTD SVG 1.1//EN" "http://www.w3.org/Graphics/SVG/1.1/DTD/svg11.dtd">
<svg version="1.1" id="Layer_1" xmlns="http://www.w3.org/2000/svg" xmlns:xlink="http://www.w3.org/1999/xlink" x="0px" y="0px"
	 width="38px" height="64px" viewBox="0 0 38 64" enable-background="new 0 0 38 64" xml:space="preserve">
<g>
	<rect fill="#FF3501" width="38" height="64"/>
	<g>
		<path fill="#FFFFFF" d="M31.645,28.739h0.121c0.15,0,0.272-0.05,0.272-0.181c0-0.099-0.072-0.19-0.263-0.19
			c-0.059,0-0.099,0-0.13,0.005V28.739z M31.645,29.376h-0.204v-1.13c0.095-0.014,0.19-0.032,0.339-0.032
			c0.18,0,0.293,0.037,0.366,0.091c0.064,0.049,0.099,0.126,0.099,0.235c0,0.145-0.095,0.239-0.215,0.271v0.01
			c0.097,0.018,0.162,0.108,0.183,0.275c0.029,0.177,0.05,0.245,0.069,0.281h-0.208c-0.027-0.036-0.049-0.14-0.073-0.289
			c-0.022-0.136-0.098-0.19-0.239-0.19h-0.117V29.376z M31.829,27.943c-0.448,0-0.809,0.376-0.809,0.846s0.361,0.845,0.814,0.845
			c0.448,0.004,0.805-0.375,0.805-0.845s-0.357-0.846-0.805-0.846H31.829z M31.834,27.772c0.559,0,1.007,0.452,1.007,1.012
			c0,0.569-0.448,1.021-1.012,1.021c-0.563,0-1.021-0.452-1.021-1.021c0-0.56,0.458-1.012,1.021-1.012H31.834z"/>
		<path fill="#FFFFFF" d="M11.957,53.113l-0.237-1.407c-0.068-0.406-0.155-1.039-0.22-1.476h-0.025
			c-0.071,0.441-0.167,1.092-0.239,1.479l-0.255,1.404H11.957z M10.853,54.029l-0.308,1.56h-1.14l1.422-6.49h1.396l1.292,6.49
			h-1.146l-0.302-1.56H10.853z"/>
		<path fill="#FFFFFF" d="M16.108,52.688c0-0.085,0-0.186-0.018-0.279c-0.044-0.32-0.216-0.609-0.488-0.609
			c-0.471,0-0.645,0.678-0.645,1.47c0,0.911,0.246,1.43,0.626,1.43c0.176,0,0.375-0.089,0.485-0.471
			c0.025-0.077,0.04-0.178,0.04-0.297V52.688z M17.278,48.925v5.318c0,0.421,0.022,0.939,0.039,1.345h-1.01l-0.066-0.541h-0.024
			c-0.169,0.333-0.539,0.618-0.979,0.618c-0.969,0-1.448-1.069-1.448-2.417c0-1.641,0.715-2.44,1.496-2.44
			c0.409,0,0.672,0.2,0.804,0.488h0.02v-2.371H17.278z"/>
		<path fill="#FFFFFF" d="M19.714,54.768c0.446,0,0.557-0.842,0.557-1.538c0-0.663-0.111-1.526-0.578-1.526
			c-0.492,0-0.597,0.863-0.597,1.526c0,0.799,0.132,1.538,0.608,1.538H19.714z M19.692,55.666c-1.077,0-1.754-0.867-1.754-2.416
			c0-1.691,0.867-2.442,1.78-2.442c1.064,0,1.732,0.908,1.732,2.414c0,1.937-1.045,2.443-1.748,2.443H19.692z"/>
		<path fill="#FFFFFF" d="M23.274,53.91c0,0.117,0.021,0.227,0.046,0.3c0.116,0.395,0.316,0.49,0.476,0.49
			c0.452,0,0.635-0.573,0.635-1.49c0-0.834-0.194-1.41-0.64-1.41c-0.223,0-0.409,0.241-0.475,0.5
			c-0.022,0.081-0.042,0.208-0.042,0.296V53.91z M22.104,48.925h1.169v2.45h0.019c0.229-0.362,0.536-0.567,0.981-0.567
			c0.883,0,1.324,1.002,1.324,2.313c0,1.657-0.661,2.544-1.516,2.544c-0.408,0-0.679-0.182-0.924-0.641h-0.025l-0.065,0.564h-1.004
			c0.017-0.391,0.04-0.923,0.04-1.345V48.925z"/>
		<path fill="#FFFFFF" d="M28.403,52.788c0.006-0.661-0.188-1.123-0.558-1.123c-0.423,0-0.603,0.619-0.617,1.123H28.403z
			 M27.224,53.616c0.014,0.85,0.461,1.126,1.015,1.126c0.353,0,0.654-0.078,0.877-0.162l0.157,0.841
			c-0.311,0.135-0.788,0.217-1.248,0.217c-1.256,0-1.941-0.857-1.941-2.323c0-1.572,0.794-2.518,1.834-2.518
			c1.003,0,1.559,0.835,1.559,2.199c0,0.311-0.013,0.487-0.032,0.624L27.224,53.616z"/>
		<polygon fill="#FFFFFF" points="21.998,27.711 29.478,27.711 29.478,45.625 		"/>
		<polygon fill="#FFFFFF" points="16.726,27.711 9.237,27.711 9.237,45.625 		"/>
		<polygon fill="#FFFFFF" points="19.361,34.314 24.129,45.625 21.004,45.625 19.579,42.021 16.088,42.021 		"/>
	</g>
</g>
</svg>
