<svg version="1.1" xmlns="http://www.w3.org/2000/svg" xmlns:xlink="http://www.w3.org/1999/xlink" width="116px" height="116px">
	<defs>
		<path id="logo" d="M30.389,51.6V33.082l-7.201,9.998c-0.15,0.236-0.364,0.354-0.643,0.354H22.48
			c-0.301,0-0.525-0.117-0.676-0.354l-7.201-9.967V51.6c0,0.214-0.074,0.396-0.225,0.546c-0.15,0.15-0.332,0.226-0.547,0.226
			c-0.214,0-0.401-0.075-0.562-0.226c-0.16-0.149-0.24-0.332-0.24-0.546V30.768c0-0.258,0.106-0.461,0.321-0.611l0.063-0.064
			c0.43-0.278,0.793-0.214,1.094,0.193l8.005,11.091l7.973-11.091c0.106-0.172,0.273-0.273,0.499-0.306
			c0.225-0.032,0.422,0.005,0.594,0.112c0.236,0.236,0.354,0.461,0.354,0.676V51.6c0,0.214-0.074,0.396-0.225,0.546
			c-0.15,0.15-0.332,0.226-0.547,0.226s-0.396-0.075-0.547-0.226C30.464,51.996,30.389,51.813,30.389,51.6z M55.496,52.338
			l-0.289,0.033c-0.364,0-0.61-0.172-0.739-0.515l-1.993-5.305H42.219l-1.992,5.305c-0.129,0.343-0.375,0.515-0.74,0.515l-0.289-0.033
			c-0.193-0.085-0.338-0.229-0.434-0.434c-0.097-0.203-0.103-0.402-0.017-0.595l7.812-20.864c0.15-0.321,0.419-0.482,0.805-0.482
			s0.632,0.161,0.739,0.482l7.812,20.864c0.086,0.192,0.086,0.392,0,0.595C55.828,52.108,55.689,52.253,55.496,52.338z M47.363,32.889
			l-4.565,12.088h9.098L47.363,32.889z M60.93,51.6V30.734c0-0.213,0.074-0.401,0.225-0.562c0.149-0.16,0.332-0.24,0.547-0.24
			c0.214,0,0.401,0.074,0.562,0.225c0.16,0.15,0.241,0.344,0.241,0.578v13.021l13.599-13.599c0.171-0.15,0.364-0.225,0.578-0.225
			s0.396,0.074,0.547,0.225c0.149,0.15,0.225,0.332,0.225,0.547s-0.086,0.407-0.257,0.578l-8.615,8.615l8.809,11.188
			c0.277,0.387,0.235,0.762-0.129,1.126c-0.129,0.107-0.312,0.161-0.547,0.161c-0.236,0-0.418-0.098-0.546-0.29l-8.713-11.059
			l-4.95,4.95V51.6c0,0.214-0.081,0.396-0.241,0.546c-0.161,0.15-0.349,0.226-0.562,0.226c-0.215,0-0.397-0.075-0.547-0.226
			C61.004,51.996,60.93,51.813,60.93,51.6z M83.915,51.6V30.639c0-0.215,0.074-0.396,0.225-0.547c0.149-0.149,0.332-0.225,0.547-0.225
			H96.26c0.214,0,0.396,0.075,0.546,0.225c0.15,0.15,0.226,0.338,0.226,0.562s-0.075,0.413-0.226,0.562
			c-0.149,0.15-0.332,0.226-0.546,0.226H85.49v8.905h9.419c0.214,0,0.396,0.08,0.547,0.24c0.149,0.161,0.225,0.35,0.225,0.562
			c0,0.215-0.075,0.397-0.225,0.547c-0.15,0.15-0.333,0.225-0.547,0.225H85.49v8.873h10.77c0.214,0,0.396,0.076,0.546,0.226
			c0.15,0.149,0.226,0.337,0.226,0.562s-0.075,0.413-0.226,0.562c-0.149,0.15-0.332,0.226-0.546,0.226H84.622
			c-0.193-0.021-0.359-0.102-0.498-0.242C83.984,51.99,83.915,51.813,83.915,51.6z M14.87,75.949v-12.57h-4.23
			c-0.134,0-0.247-0.051-0.341-0.15c-0.094-0.102-0.141-0.218-0.141-0.352c0-0.133,0.047-0.247,0.141-0.341
			c0.094-0.093,0.207-0.141,0.341-0.141h9.424c0.134,0,0.247,0.048,0.341,0.141c0.094,0.094,0.141,0.208,0.141,0.341
			c0,0.134-0.047,0.25-0.141,0.352c-0.094,0.1-0.207,0.15-0.341,0.15h-4.231v12.57c0,0.135-0.047,0.248-0.14,0.342
			c-0.094,0.094-0.208,0.141-0.341,0.141c-0.134,0-0.248-0.047-0.341-0.141C14.917,76.197,14.87,76.084,14.87,75.949z M15.352,76.682
			c-0.2,0-0.379-0.074-0.518-0.215c-0.14-0.139-0.214-0.318-0.214-0.518v-12.32h-3.98c-0.202,0-0.383-0.08-0.523-0.23
			c-0.138-0.148-0.208-0.323-0.208-0.521c0-0.199,0.074-0.378,0.214-0.518c0.141-0.141,0.319-0.214,0.518-0.214h9.424
			c0.198,0,0.377,0.073,0.518,0.214c0.14,0.14,0.214,0.318,0.214,0.518c0,0.198-0.07,0.373-0.208,0.521
			c-0.141,0.15-0.321,0.23-0.523,0.23h-3.981v12.32c0,0.199-0.073,0.377-0.212,0.518C15.729,76.607,15.55,76.682,15.352,76.682z
			 M10.64,62.646c-0.066,0-0.117,0.021-0.164,0.067s-0.067,0.098-0.067,0.164c0,0.07,0.022,0.126,0.073,0.181
			c0.047,0.05,0.094,0.071,0.158,0.071h4.48v12.82c0,0.068,0.021,0.118,0.067,0.165c0.092,0.093,0.234,0.093,0.328-0.001
			c0.046-0.045,0.066-0.096,0.066-0.164v-12.82h4.481c0.064,0,0.111-0.021,0.158-0.072c0.051-0.054,0.073-0.109,0.073-0.18
			c0-0.066-0.021-0.117-0.067-0.164s-0.098-0.067-0.164-0.067H10.64z M32.435,75.949v-6.055h-7.218v6.055
			c0,0.135-0.051,0.248-0.15,0.342c-0.102,0.094-0.219,0.141-0.352,0.141c-0.134,0-0.248-0.047-0.341-0.141
			c-0.094-0.094-0.14-0.207-0.14-0.342V62.877c0-0.133,0.046-0.247,0.14-0.341c0.093-0.093,0.207-0.141,0.341-0.141
			c0.133,0,0.25,0.048,0.352,0.141c0.1,0.094,0.15,0.208,0.15,0.341v6.055h7.218v-6.055c0-0.133,0.046-0.247,0.14-0.341
			c0.094-0.093,0.207-0.141,0.342-0.141c0.133,0,0.25,0.048,0.351,0.141c0.101,0.094,0.15,0.208,0.15,0.341v13.072
			c0,0.135-0.05,0.248-0.15,0.342s-0.218,0.141-0.351,0.141c-0.135,0-0.248-0.047-0.342-0.141S32.435,76.084,32.435,75.949z
			 M32.916,76.682c-0.199,0-0.378-0.074-0.519-0.213c-0.14-0.141-0.213-0.319-0.213-0.52v-5.805h-6.718v5.805
			c0,0.201-0.079,0.383-0.229,0.523c-0.303,0.281-0.765,0.273-1.04-0.006c-0.14-0.139-0.213-0.317-0.213-0.518V62.877
			c0-0.199,0.073-0.379,0.213-0.518c0.273-0.275,0.74-0.282,1.038-0.008c0.152,0.144,0.231,0.324,0.231,0.525v5.805h6.718v-5.805
			c0-0.199,0.073-0.379,0.213-0.518c0.277-0.278,0.743-0.281,1.039-0.006c0.151,0.141,0.23,0.32,0.23,0.523v13.072
			c0,0.203-0.079,0.385-0.229,0.525C33.291,76.609,33.11,76.682,32.916,76.682z M24.967,69.645h7.718v6.305
			c0,0.069,0.02,0.119,0.066,0.165c0.094,0.094,0.238,0.093,0.346-0.007c0.049-0.045,0.07-0.093,0.07-0.158V62.877
			c0-0.064-0.021-0.111-0.071-0.158c-0.107-0.1-0.249-0.1-0.345-0.006c-0.046,0.046-0.066,0.097-0.066,0.164v6.305h-7.718v-6.305
			c0-0.064-0.021-0.111-0.071-0.158c-0.105-0.096-0.25-0.1-0.345-0.006c-0.046,0.046-0.066,0.097-0.066,0.164v13.072
			c0,0.069,0.02,0.119,0.066,0.165c0.094,0.095,0.237,0.093,0.347-0.007c0.048-0.046,0.069-0.094,0.069-0.158V69.645z M38.449,75.949
			V62.877c0-0.133,0.047-0.247,0.141-0.341c0.094-0.093,0.207-0.141,0.341-0.141h7.218c0.134,0,0.248,0.048,0.342,0.141
			c0.093,0.094,0.141,0.21,0.141,0.351s-0.048,0.258-0.141,0.352c-0.094,0.094-0.208,0.141-0.342,0.141h-6.717v5.553h5.875
			c0.134,0,0.248,0.051,0.341,0.15c0.094,0.102,0.141,0.218,0.141,0.352s-0.047,0.248-0.141,0.341c-0.093,0.094-0.207,0.14-0.341,0.14
			h-5.875v5.535h6.717c0.134,0,0.248,0.047,0.342,0.14c0.093,0.094,0.141,0.21,0.141,0.351s-0.048,0.258-0.141,0.352
			c-0.094,0.094-0.208,0.141-0.342,0.141h-7.258c-0.12-0.014-0.225-0.064-0.311-0.15C38.492,76.193,38.449,76.084,38.449,75.949z
			 M46.148,76.682h-7.258c-0.204-0.021-0.363-0.099-0.488-0.225c-0.132-0.131-0.203-0.307-0.203-0.508V62.877
			c0-0.199,0.074-0.378,0.214-0.518c0.141-0.141,0.319-0.214,0.518-0.214h7.218c0.198,0,0.378,0.073,0.519,0.214
			c0.141,0.142,0.214,0.324,0.214,0.527c0,0.205-0.074,0.387-0.214,0.527s-0.319,0.215-0.519,0.215h-6.467v5.053h5.625
			c0.203,0,0.385,0.08,0.524,0.23c0.137,0.148,0.207,0.323,0.207,0.521c0,0.199-0.074,0.379-0.214,0.518
			c-0.138,0.139-0.317,0.213-0.518,0.213h-5.625v5.035h6.467c0.199,0,0.378,0.073,0.519,0.213c0.141,0.142,0.214,0.324,0.214,0.527
			c0,0.205-0.073,0.387-0.213,0.527C46.526,76.607,46.348,76.682,46.148,76.682z M38.931,62.646c-0.066,0-0.117,0.021-0.164,0.067
			s-0.067,0.098-0.067,0.164v13.072c0,0.086,0.028,0.126,0.057,0.154c0.048,0.047,0.099,0.072,0.162,0.079l7.23-0.001
			c0.067,0,0.118-0.021,0.165-0.068c0.046-0.046,0.067-0.1,0.067-0.174c0-0.072-0.021-0.127-0.068-0.175
			c-0.046-0.045-0.097-0.065-0.164-0.065h-6.967v-6.035h6.125c0.067,0,0.118-0.02,0.163-0.065c0.048-0.048,0.068-0.099,0.068-0.165
			c0-0.07-0.022-0.126-0.073-0.181c-0.047-0.05-0.094-0.071-0.158-0.071h-6.125v-6.053h6.967c0.067,0,0.118-0.021,0.165-0.068
			s0.067-0.1,0.067-0.174c0-0.072-0.021-0.127-0.068-0.175c-0.046-0.046-0.097-0.066-0.164-0.066H38.931z M69.527,76.432
			c-0.174,0-0.308-0.094-0.401-0.281c0-0.026-0.007-0.047-0.02-0.061l-3.569-8.48l-3.589,8.48c0,0.067-0.047,0.147-0.141,0.241
			c-0.134,0.067-0.247,0.101-0.341,0.101c-0.12,0-0.224-0.044-0.311-0.131c-0.088-0.087-0.138-0.177-0.15-0.271l-5.414-12.872
			c-0.054-0.121-0.057-0.244-0.01-0.371s0.13-0.217,0.25-0.271c0.121-0.053,0.244-0.057,0.371-0.01s0.218,0.131,0.271,0.251
			l5.013,11.93l3.569-8.44c0.107-0.201,0.268-0.301,0.481-0.301s0.374,0.1,0.481,0.301l3.549,8.44l5.013-11.93
			c0.146-0.294,0.367-0.374,0.661-0.241c0.12,0.055,0.204,0.145,0.251,0.271s0.043,0.25-0.01,0.371L70.028,76.11
			c-0.08,0.188-0.214,0.294-0.401,0.321H69.527z M69.645,76.682h-0.117c-0.268,0-0.49-0.149-0.625-0.42l-0.026-0.074l-3.34-7.936
			l-3.343,7.9c-0.018,0.116-0.087,0.233-0.209,0.355l-0.065,0.047c-0.403,0.203-0.71,0.154-0.939-0.077
			c-0.116-0.114-0.188-0.241-0.215-0.377l-5.403-12.847c-0.077-0.172-0.083-0.365-0.014-0.554s0.202-0.331,0.382-0.412
			c0.184-0.08,0.372-0.086,0.56-0.017c0.192,0.071,0.335,0.205,0.414,0.385l4.784,11.387l3.338-7.895
			c0.162-0.304,0.404-0.453,0.712-0.453s0.55,0.149,0.702,0.432l3.328,7.914L74.35,62.66c0.188-0.38,0.45-0.457,0.638-0.457
			c0.113,0,0.233,0.029,0.357,0.086c0.18,0.08,0.312,0.223,0.382,0.411c0.068,0.187,0.063,0.379-0.016,0.558l-5.452,12.949
			c-0.115,0.27-0.321,0.432-0.597,0.472L69.645,76.682z M69.368,76.072c0.064,0.109,0.125,0.109,0.159,0.109h0.079
			c0.093-0.018,0.148-0.068,0.192-0.17l5.453-12.951c0.028-0.064,0.03-0.121,0.006-0.188c-0.023-0.063-0.06-0.102-0.119-0.129
			c-0.059-0.026-0.11-0.041-0.151-0.041c-0.03,0-0.102,0-0.184,0.165l-5.236,12.464l-3.779-8.99c-0.107-0.197-0.385-0.219-0.512,0.021
			l-3.791,8.967l-5.242-12.477c-0.023-0.055-0.062-0.09-0.127-0.113s-0.121-0.023-0.184,0.005c-0.058,0.025-0.093,0.063-0.116,0.128
			c-0.024,0.066-0.023,0.123,0.004,0.183l5.434,12.94c0.005,0.038,0.031,0.08,0.078,0.127c0.041,0.041,0.081,0.059,0.135,0.059
			c0.027,0,0.087-0.008,0.191-0.057c0.035-0.039,0.043-0.059,0.043-0.059l0.017-0.074l3.82-9.026l3.788,9.003
			C69.344,75.996,69.359,76.031,69.368,76.072z M78.449,75.949V62.877c0-0.133,0.047-0.247,0.141-0.341
			c0.094-0.093,0.207-0.141,0.341-0.141h7.219c0.133,0,0.247,0.048,0.341,0.141c0.093,0.094,0.14,0.21,0.14,0.351
			s-0.047,0.258-0.14,0.352c-0.094,0.094-0.208,0.141-0.341,0.141h-6.718v5.553h5.875c0.134,0,0.247,0.051,0.341,0.15
			c0.094,0.102,0.141,0.218,0.141,0.352s-0.047,0.248-0.141,0.341c-0.094,0.094-0.207,0.14-0.341,0.14h-5.875v5.535h6.718
			c0.133,0,0.247,0.047,0.341,0.14c0.093,0.094,0.14,0.21,0.14,0.351s-0.047,0.258-0.14,0.352c-0.094,0.094-0.208,0.141-0.341,0.141
			h-7.259c-0.12-0.014-0.224-0.064-0.311-0.15C78.493,76.193,78.449,76.084,78.449,75.949z M86.149,76.682h-7.259
			c-0.205-0.021-0.359-0.096-0.487-0.225c-0.134-0.133-0.204-0.309-0.204-0.508V62.877c0-0.199,0.074-0.378,0.214-0.518
			c0.141-0.141,0.319-0.214,0.518-0.214h7.219c0.198,0,0.377,0.073,0.518,0.214c0.14,0.141,0.213,0.323,0.213,0.527
			c0,0.205-0.073,0.388-0.213,0.527c-0.14,0.141-0.319,0.215-0.518,0.215h-6.468v5.053h5.625c0.202,0,0.383,0.08,0.523,0.23
			c0.138,0.148,0.208,0.323,0.208,0.521c0,0.199-0.074,0.379-0.214,0.518c-0.14,0.14-0.318,0.213-0.518,0.213h-5.625v5.035h6.468
			c0.198,0,0.377,0.073,0.518,0.213c0.14,0.141,0.213,0.323,0.213,0.527c0,0.205-0.073,0.387-0.212,0.527
			C86.526,76.607,86.348,76.682,86.149,76.682z M78.931,62.646c-0.066,0-0.117,0.021-0.164,0.067s-0.067,0.098-0.067,0.164v13.072
			c0,0.086,0.031,0.128,0.058,0.154c0.047,0.047,0.098,0.072,0.161,0.079l7.231-0.001c0.067,0,0.117-0.021,0.164-0.068
			c0.046-0.045,0.066-0.1,0.066-0.174s-0.021-0.127-0.067-0.175c-0.046-0.045-0.096-0.065-0.163-0.065h-6.968v-6.035h6.125
			c0.068,0,0.117-0.02,0.164-0.066s0.067-0.098,0.067-0.164c0-0.07-0.022-0.126-0.073-0.181c-0.047-0.05-0.094-0.071-0.158-0.071
			h-6.125v-6.053h6.968c0.066,0,0.117-0.021,0.164-0.068c0.046-0.045,0.066-0.1,0.066-0.174s-0.021-0.127-0.067-0.175
			c-0.046-0.046-0.097-0.066-0.163-0.066H78.931z M90.339,75.949V62.877c0-0.133,0.047-0.247,0.141-0.341
			c0.094-0.093,0.207-0.141,0.341-0.141h3.128c0.963,0,1.784,0.341,2.466,1.022c0.683,0.682,1.023,1.541,1.023,2.576
			c0,1.037-0.448,1.916-1.344,2.637c0.802,0.281,1.46,0.766,1.975,1.454s0.772,1.468,0.772,2.336c0,1.11-0.392,2.056-1.173,2.837
			c-0.782,0.782-1.729,1.174-2.838,1.174h-4.029c-0.134,0-0.244-0.047-0.331-0.141S90.339,76.084,90.339,75.949z M91.321,68.391h2.627
			c0.695,0,1.286-0.244,1.774-0.731s0.732-1.076,0.732-1.765s-0.244-1.279-0.732-1.774s-1.079-0.741-1.774-0.741h-2.627V68.391z
			 M91.321,75.449h3.509c0.829,0,1.537-0.295,2.126-0.883c0.588-0.588,0.889-1.303,0.902-2.146c-0.014-0.829-0.314-1.54-0.902-2.136
			c-0.589-0.594-1.297-0.892-2.126-0.892h-3.509V75.449z M94.83,76.682h-4.029c-0.202,0-0.38-0.076-0.514-0.221
			c-0.13-0.139-0.198-0.316-0.198-0.512V62.877c0-0.199,0.074-0.378,0.214-0.518c0.141-0.141,0.319-0.214,0.518-0.214h3.128
			c1.026,0,1.915,0.368,2.643,1.097c0.728,0.727,1.097,1.652,1.097,2.752c0,0.982-0.378,1.84-1.124,2.557
			c0.675,0.309,1.247,0.772,1.705,1.385c0.546,0.73,0.822,1.566,0.822,2.485c0,1.173-0.419,2.187-1.246,3.015
			C97.018,76.262,96.003,76.682,94.83,76.682z M90.82,62.646c-0.066,0-0.117,0.021-0.164,0.067s-0.067,0.098-0.067,0.164v13.072
			c0,0.071,0.02,0.124,0.064,0.172c0.039,0.042,0.083,0.061,0.147,0.061h4.029c1.05,0,1.921-0.36,2.661-1.1
			c0.74-0.741,1.1-1.611,1.1-2.661c0-0.809-0.243-1.544-0.723-2.187c-0.482-0.645-1.107-1.104-1.857-1.367l-0.424-0.148l0.35-0.282
			c0.842-0.679,1.251-1.478,1.251-2.442c0-0.976-0.311-1.76-0.95-2.398c-0.639-0.64-1.388-0.95-2.289-0.95H90.82z M94.83,75.699
			h-3.759v-6.556h3.759c0.894,0,1.669,0.325,2.304,0.966c0.632,0.64,0.96,1.416,0.975,2.308c-0.015,0.913-0.343,1.693-0.976,2.326
			C96.498,75.377,95.724,75.699,94.83,75.699z M91.571,75.199h3.259c0.767,0,1.404-0.266,1.949-0.81
			c0.545-0.546,0.816-1.19,0.829-1.973c-0.013-0.761-0.284-1.403-0.83-1.956c-0.545-0.55-1.183-0.817-1.948-0.817h-3.259V75.199z
			 M93.948,68.641h-2.877v-5.512h2.877c0.761,0,1.418,0.273,1.952,0.815c0.534,0.541,0.805,1.196,0.805,1.95s-0.271,1.407-0.806,1.941
			S94.708,68.641,93.948,68.641z M91.571,68.141h2.377c0.632,0,1.154-0.215,1.598-0.658s0.659-0.963,0.659-1.588
			s-0.216-1.148-0.66-1.599c-0.443-0.449-0.966-0.667-1.597-0.667h-2.377V68.141z M20.76,96.1l-0.147,0.018
			c-0.187,0-0.312-0.088-0.378-0.264l-1.017-2.705h-5.233l-1.018,2.705c-0.064,0.176-0.191,0.264-0.377,0.264L12.442,96.1
			c-0.099-0.043-0.173-0.117-0.222-0.221s-0.052-0.205-0.008-0.303l3.986-10.646c0.076-0.164,0.213-0.246,0.41-0.246
			s0.322,0.082,0.377,0.246l3.986,10.646c0.044,0.098,0.044,0.199,0,0.303C20.93,95.982,20.858,96.057,20.76,96.1z M16.609,86.176
			l-2.33,6.168h4.643L16.609,86.176z M20.627,96.367h-0.015c-0.291,0-0.508-0.151-0.611-0.426l-0.956-2.543h-4.888l-0.956,2.543
			c-0.1,0.27-0.322,0.426-0.611,0.426l-0.247-0.038c-0.153-0.067-0.273-0.186-0.349-0.344c-0.08-0.17-0.083-0.348-0.009-0.512
			l3.979-10.632c0.125-0.27,0.351-0.408,0.645-0.408c0.307,0,0.524,0.148,0.614,0.417l3.983,10.638
			c0.066,0.146,0.067,0.32-0.004,0.488c-0.067,0.161-0.187,0.284-0.344,0.353l-0.07,0.019L20.627,96.367z M12.517,95.856l0.103,0.013
			c0.052-0.002,0.085-0.025,0.113-0.102l1.079-2.869h5.579l1.078,2.867c0.027,0.074,0.059,0.099,0.131,0.102l0.086-0.011
			c0.024-0.017,0.042-0.04,0.057-0.073c0.021-0.051,0.014-0.08,0.003-0.104l-3.993-10.661c-0.016-0.047-0.028-0.084-0.143-0.084
			s-0.153,0.037-0.184,0.102l-3.979,10.629c-0.016,0.035-0.023,0.061,0,0.108C12.465,95.811,12.487,95.838,12.517,95.856z
			 M19.282,92.594h-5.364l2.692-7.128L19.282,92.594z M14.641,92.094h3.921l-1.953-5.208L14.641,92.094z M34.311,96.117
			c-0.143,0-0.252-0.076-0.328-0.23c0-0.021-0.006-0.037-0.017-0.049l-2.92-6.939l-2.937,6.939c0,0.055-0.039,0.121-0.115,0.197
			c-0.109,0.055-0.202,0.082-0.278,0.082c-0.099,0-0.184-0.035-0.255-0.107c-0.07-0.07-0.111-0.145-0.123-0.221l-4.43-10.532
			c-0.043-0.099-0.046-0.199-0.008-0.304c0.039-0.104,0.107-0.178,0.205-0.221c0.099-0.044,0.199-0.047,0.304-0.008
			c0.104,0.037,0.178,0.105,0.222,0.205l4.102,9.76l2.92-6.906c0.087-0.164,0.219-0.246,0.394-0.246s0.306,0.082,0.394,0.246
			l2.904,6.906l4.101-9.76c0.12-0.241,0.301-0.307,0.542-0.197c0.098,0.043,0.166,0.117,0.205,0.221
			c0.037,0.104,0.035,0.205-0.009,0.304l-4.462,10.597c-0.066,0.154-0.176,0.242-0.328,0.264H34.311z M34.41,96.367h-0.1
			c-0.238,0-0.435-0.131-0.553-0.37l-0.025-0.069l-2.688-6.387l-2.69,6.36c-0.018,0.103-0.078,0.205-0.184,0.311l-0.065,0.047
			c-0.353,0.179-0.623,0.13-0.822-0.073c-0.107-0.107-0.172-0.229-0.192-0.358l-4.413-10.474c-0.067-0.154-0.071-0.322-0.013-0.486
			c0.064-0.169,0.182-0.294,0.34-0.363c0.155-0.07,0.326-0.075,0.492-0.014c0.164,0.059,0.291,0.176,0.362,0.338l3.874,9.218
			l2.688-6.36c0.277-0.525,0.977-0.51,1.238-0.021l2.684,6.379l3.87-9.211c0.175-0.352,0.428-0.401,0.564-0.401
			c0.099,0,0.203,0.024,0.312,0.073c0.155,0.068,0.272,0.193,0.336,0.36c0.061,0.172,0.056,0.336-0.015,0.493l-4.46,10.592
			c-0.103,0.238-0.283,0.381-0.523,0.414L34.41,96.367z M34.224,95.807c0.037,0.061,0.066,0.061,0.087,0.061h0.062
			c0.048-0.01,0.086-0.035,0.119-0.112l4.461-10.595c0.02-0.044,0.02-0.078,0.004-0.123c-0.018-0.047-0.045-0.064-0.07-0.076
			c-0.056-0.025-0.089-0.029-0.107-0.029c-0.016,0-0.056,0-0.11,0.109l-4.324,10.294l-3.135-7.455
			c-0.082-0.146-0.236-0.169-0.336,0.021l-3.142,7.433L23.4,85.026c-0.015-0.033-0.035-0.052-0.075-0.066l-0.119,0.001
			c-0.025,0.012-0.053,0.029-0.071,0.08c-0.016,0.041-0.015,0.076,0.003,0.116l4.431,10.535c0.021,0.081,0.039,0.11,0.069,0.141
			c0.025,0.025,0.046,0.034,0.078,0.034c0.012,0,0.051-0.003,0.128-0.037c0.018-0.021,0.022-0.03,0.022-0.03l3.181-7.544
			L34.224,95.807z M41.61,95.723V85.027c0-0.109,0.038-0.202,0.114-0.279c0.077-0.076,0.17-0.114,0.279-0.114h5.906
			c0.109,0,0.202,0.038,0.278,0.114c0.077,0.077,0.115,0.173,0.115,0.287c0,0.115-0.038,0.211-0.115,0.287
			c-0.076,0.077-0.169,0.115-0.278,0.115h-5.496v4.545h4.807c0.109,0,0.202,0.041,0.279,0.123c0.076,0.082,0.114,0.178,0.114,0.285
			c0,0.111-0.038,0.203-0.114,0.279c-0.077,0.078-0.17,0.115-0.279,0.115h-4.807v4.527h5.496c0.109,0,0.202,0.039,0.278,0.115
			c0.077,0.076,0.115,0.172,0.115,0.287s-0.038,0.211-0.115,0.287c-0.076,0.076-0.169,0.115-0.278,0.115h-5.939
			c-0.098-0.012-0.183-0.053-0.254-0.123C41.646,95.924,41.61,95.832,41.61,95.723z M47.91,96.367h-5.939
			c-0.184-0.021-0.318-0.085-0.43-0.195c-0.118-0.118-0.181-0.273-0.181-0.449V85.027c0-0.174,0.064-0.332,0.187-0.455
			c0.126-0.124,0.283-0.188,0.457-0.188h5.906c0.175,0,0.332,0.065,0.455,0.188c0.123,0.123,0.188,0.284,0.188,0.464
			c0,0.182-0.065,0.342-0.189,0.465c-0.12,0.122-0.278,0.188-0.454,0.188h-5.246v4.045h4.557c0.178,0,0.337,0.069,0.461,0.202
			c0.12,0.128,0.183,0.286,0.183,0.456c0,0.176-0.064,0.333-0.188,0.456c-0.121,0.123-0.279,0.188-0.456,0.188h-4.557v4.027h5.246
			c0.175,0,0.332,0.065,0.455,0.188c0.123,0.121,0.188,0.282,0.188,0.464s-0.065,0.343-0.189,0.465
			C48.242,96.302,48.085,96.367,47.91,96.367z M42.004,84.884c-0.043,0-0.073,0.013-0.104,0.042c-0.027,0.028-0.04,0.059-0.04,0.102
			v10.695c0,0.055,0.018,0.079,0.033,0.095c0.03,0.03,0.063,0.047,0.107,0.052l5.909-0.002c0.042,0,0.071-0.012,0.102-0.042
			c0.022-0.022,0.042-0.05,0.042-0.11s-0.02-0.088-0.041-0.109c-0.031-0.031-0.061-0.043-0.103-0.043h-5.746v-5.027h5.057
			c0.044,0,0.072-0.012,0.102-0.041c0.03-0.03,0.042-0.06,0.042-0.104s-0.015-0.08-0.048-0.115s-0.062-0.043-0.096-0.043h-5.057
			v-5.045h5.746c0.043,0,0.071-0.012,0.101-0.041c0.023-0.023,0.043-0.051,0.043-0.111s-0.021-0.088-0.042-0.11
			c-0.029-0.029-0.059-0.041-0.102-0.041H42.004z M51.813,87.455c0.022,1.094,1.127,1.848,3.314,2.264h0.032
			c1.258,0.23,2.231,0.58,2.92,1.051c0.843,0.547,1.264,1.271,1.264,2.174s-0.424,1.658-1.271,2.271s-1.84,0.918-2.978,0.918
			c-1.443-0.01-2.854-0.562-4.232-1.656c-0.175-0.152-0.191-0.322-0.049-0.508c0.065-0.078,0.147-0.121,0.245-0.133
			c0.099-0.01,0.187,0.018,0.263,0.082c1.236,0.996,2.494,1.488,3.773,1.477c1.006,0,1.848-0.25,2.526-0.754
			c0.656-0.471,0.984-1.039,0.984-1.707c0-1.225-1.197-2.061-3.593-2.51h-0.033c-2.592-0.48-3.888-1.471-3.888-2.969
			c0-0.854,0.391-1.563,1.173-2.133c0.782-0.568,1.715-0.853,2.797-0.853c0.471,0,0.943,0.079,1.419,0.237
			c0.477,0.159,0.846,0.312,1.107,0.46c0.263,0.147,0.602,0.358,1.018,0.632c0.196,0.131,0.229,0.301,0.099,0.508
			c-0.121,0.197-0.285,0.23-0.492,0.099c-0.394-0.251-0.714-0.448-0.96-0.591c-0.246-0.142-0.574-0.281-0.984-0.418
			s-0.812-0.205-1.206-0.205c-0.918,0-1.7,0.229-2.346,0.689C52.114,86.329,51.813,86.854,51.813,87.455z M55.095,96.383h-0.002
			c-1.493-0.01-2.969-0.586-4.386-1.71c-0.284-0.248-0.315-0.565-0.092-0.856c0.111-0.133,0.252-0.209,0.413-0.229l0.068-0.004
			c0.142,0,0.275,0.05,0.386,0.144c1.166,0.938,2.368,1.417,3.567,1.417c0.992,0,1.793-0.237,2.422-0.705
			c0.596-0.427,0.884-0.919,0.884-1.506c0-1.081-1.141-1.843-3.389-2.264c-2.748-0.504-4.125-1.585-4.125-3.215
			c0-0.934,0.43-1.719,1.275-2.335c0.822-0.598,1.813-0.9,2.944-0.9c0.495,0,0.999,0.084,1.498,0.25
			c0.496,0.166,0.873,0.323,1.151,0.479c0.264,0.148,0.602,0.357,1.032,0.641c0.309,0.206,0.374,0.531,0.172,0.851
			c-0.148,0.242-0.341,0.294-0.476,0.294c-0.117,0-0.238-0.04-0.362-0.118c-0.39-0.249-0.707-0.444-0.95-0.585
			c-0.231-0.133-0.547-0.268-0.938-0.397c-0.383-0.128-0.762-0.192-1.127-0.192c-0.861,0-1.602,0.217-2.2,0.643
			c-0.535,0.399-0.798,0.849-0.798,1.371c0.02,0.948,1.066,1.629,3.111,2.019c1.318,0.235,2.333,0.603,3.046,1.09
			c0.909,0.59,1.373,1.392,1.373,2.38c0,0.981-0.463,1.813-1.375,2.474C57.333,96.058,56.282,96.383,55.095,96.383z M51.097,94.084
			c-0.045,0.005-0.068,0.018-0.092,0.045c-0.056,0.073-0.054,0.094,0.021,0.159c1.318,1.046,2.69,1.585,4.068,1.595
			c1.08,0,2.032-0.293,2.831-0.87c0.786-0.569,1.168-1.246,1.168-2.069c0-0.819-0.376-1.462-1.149-1.964
			c-0.66-0.451-1.61-0.791-2.829-1.015c-2.343-0.439-3.526-1.282-3.552-2.505c0-0.687,0.338-1.284,1.003-1.78
			c0.689-0.49,1.527-0.738,2.495-0.738c0.419,0,0.852,0.073,1.285,0.218c0.423,0.142,0.77,0.288,1.03,0.438
			c0.249,0.145,0.572,0.344,0.97,0.597c0.061,0.039,0.09,0.04,0.093,0.04c0.006-0.002,0.025-0.017,0.052-0.059
			c0.067-0.107,0.047-0.121-0.024-0.169c-0.419-0.275-0.747-0.479-1.001-0.622c-0.247-0.139-0.605-0.287-1.064-0.44
			c-0.447-0.149-0.898-0.225-1.34-0.225c-1.023,0-1.915,0.271-2.65,0.805c-0.72,0.524-1.069,1.155-1.069,1.931
			c0,1.354,1.239,2.27,3.684,2.723c2.553,0.473,3.83,1.399,3.83,2.756c0,0.749-0.366,1.392-1.089,1.91
			c-0.714,0.53-1.614,0.801-2.672,0.801h-0.001c-1.36,0-2.668-0.516-3.93-1.532C51.134,94.087,51.114,94.084,51.097,94.084z
			 M61.771,90.293c0.011-1.619,0.553-2.994,1.624-4.125c1.072-1.133,2.376-1.698,3.913-1.698c1.536,0,2.835,0.565,3.896,1.698
			c1.061,1.131,1.597,2.506,1.607,4.125c-0.011,1.619-0.547,2.994-1.607,4.127c-1.062,1.131-2.36,1.697-3.896,1.697
			c-1.537,0-2.841-0.566-3.913-1.697C62.324,93.287,61.782,91.912,61.771,90.293z M67.292,85.29c-1.296,0-2.406,0.481-3.33,1.443
			c-0.925,0.962-1.387,2.146-1.387,3.552c0,1.404,0.462,2.594,1.387,3.568c0.924,0.973,2.031,1.459,3.322,1.459
			c1.29,0,2.395-0.488,3.313-1.467c0.919-0.98,1.384-2.164,1.395-3.553c-0.011-1.41-0.474-2.598-1.387-3.56S68.588,85.29,67.292,85.29
			z M67.309,96.367c-1.6,0-2.978-0.598-4.095-1.775c-1.112-1.176-1.682-2.621-1.692-4.297c0.011-1.68,0.581-3.125,1.692-4.299
			c1.116-1.179,2.493-1.776,4.095-1.776s2.974,0.599,4.079,1.777c1.101,1.173,1.664,2.618,1.675,4.294
			c-0.011,1.679-0.574,3.124-1.675,4.3C70.281,95.77,68.909,96.367,67.309,96.367z M67.309,84.72c-1.479,0-2.699,0.53-3.731,1.62
			c-1.022,1.079-1.546,2.409-1.556,3.955c0.01,1.541,0.533,2.872,1.556,3.953c1.019,1.074,2.274,1.619,3.731,1.619
			c1.456,0,2.706-0.545,3.714-1.618c1.012-1.08,1.53-2.412,1.54-3.958c-0.01-1.543-0.528-2.873-1.54-3.952
			C70.016,85.265,68.767,84.72,67.309,84.72z M67.284,95.562c-1.356,0-2.535-0.517-3.504-1.537c-0.966-1.018-1.455-2.276-1.455-3.74
			c0-1.467,0.49-2.72,1.456-3.725c0.969-1.01,2.15-1.521,3.511-1.521s2.536,0.512,3.495,1.521c0.954,1.006,1.444,2.261,1.455,3.73
			c-0.011,1.45-0.503,2.702-1.462,3.726C69.816,95.042,68.641,95.562,67.284,95.562z M67.292,85.54c-1.219,0-2.279,0.46-3.149,1.366
			c-0.874,0.909-1.317,2.046-1.317,3.379c0,1.332,0.443,2.475,1.318,3.396c0.883,0.929,1.91,1.381,3.141,1.381
			c1.229,0,2.254-0.454,3.131-1.388c0.87-0.929,1.317-2.067,1.327-3.384c-0.01-1.335-0.454-2.475-1.318-3.386
			C69.552,85.986,68.527,85.54,67.292,85.54z M64.657,90.293c0.006-0.773,0.265-1.428,0.775-1.969
			c0.512-0.539,1.134-0.811,1.867-0.811c0.732,0,1.353,0.271,1.859,0.811c0.506,0.541,0.762,1.195,0.767,1.969
			c-0.005,0.773-0.261,1.428-0.767,1.969c-0.507,0.539-1.127,0.811-1.859,0.811c-0.733,0-1.355-0.271-1.867-0.811
			C64.922,91.721,64.663,91.066,64.657,90.293z M67.292,87.906c-0.618,0-1.148,0.229-1.589,0.688
			c-0.441,0.459-0.662,1.025-0.662,1.695s0.221,1.238,0.662,1.703c0.44,0.463,0.969,0.695,1.585,0.695
			c0.615,0,1.143-0.232,1.581-0.699c0.438-0.469,0.66-1.033,0.665-1.695c-0.005-0.672-0.226-1.24-0.661-1.699
			C68.437,88.135,67.91,87.906,67.292,87.906z M67.3,93.322c-0.8,0-1.489-0.299-2.049-0.889c-0.554-0.587-0.838-1.306-0.844-2.139
			c0.006-0.837,0.29-1.556,0.844-2.143c0.56-0.59,1.249-0.889,2.049-0.889s1.486,0.299,2.042,0.89
			c0.548,0.586,0.829,1.306,0.834,2.138c-0.005,0.836-0.286,1.556-0.834,2.142C68.786,93.023,68.1,93.322,67.3,93.322z M67.292,88.156
			c-0.554,0-1.015,0.2-1.408,0.61c-0.399,0.415-0.593,0.913-0.593,1.522s0.194,1.11,0.594,1.531c0.395,0.415,0.854,0.617,1.403,0.617
			s1.007-0.203,1.398-0.62c0.397-0.425,0.593-0.925,0.598-1.526c-0.004-0.602-0.204-1.115-0.593-1.525
			C68.302,88.355,67.844,88.156,67.292,88.156z M85.083,95.723v-9.448l-3.675,5.101c-0.076,0.121-0.186,0.182-0.328,0.182h-0.032
			c-0.153,0-0.269-0.061-0.345-0.182l-3.675-5.084v9.432c0,0.109-0.038,0.203-0.114,0.279c-0.077,0.076-0.17,0.115-0.279,0.115
			s-0.205-0.039-0.287-0.115s-0.123-0.17-0.123-0.279v-10.63c0-0.131,0.055-0.235,0.164-0.312l0.033-0.033
			c0.219-0.142,0.404-0.109,0.558,0.1l4.085,5.658l4.068-5.658c0.055-0.088,0.14-0.141,0.254-0.156
			c0.115-0.017,0.216,0.002,0.304,0.057c0.12,0.121,0.181,0.236,0.181,0.345v10.63c0,0.109-0.039,0.203-0.115,0.279
			s-0.17,0.115-0.278,0.115c-0.11,0-0.203-0.039-0.279-0.115S85.083,95.832,85.083,95.723z M85.478,96.367
			c-0.175,0-0.333-0.065-0.456-0.188s-0.188-0.281-0.188-0.456v-8.674l-3.222,4.473c-0.112,0.179-0.305,0.285-0.531,0.285
			c-0.27,0-0.468-0.106-0.589-0.299l-3.213-4.444v8.659c0,0.176-0.064,0.333-0.188,0.456c-0.248,0.246-0.655,0.247-0.913,0.007
			c-0.133-0.124-0.203-0.283-0.203-0.463v-10.63c0-0.214,0.094-0.394,0.271-0.517c0.17-0.122,0.3-0.164,0.426-0.164
			c0.136,0,0.335,0.05,0.509,0.287l3.884,5.379l3.865-5.377c0.086-0.138,0.235-0.232,0.423-0.258c0.171-0.023,0.333,0.006,0.47,0.092
			c0.214,0.206,0.299,0.381,0.299,0.558v10.63c0,0.175-0.065,0.333-0.188,0.456S85.652,96.367,85.478,96.367z M85.333,85.5v10.223
			c0,0.042,0.013,0.073,0.042,0.103c0.06,0.06,0.145,0.06,0.204,0c0.029-0.029,0.042-0.061,0.042-0.103v-10.63
			c0-0.01-0.005-0.065-0.108-0.169c0.017,0.018-0.006,0.012-0.047,0.012c-0.096,0.01-0.11,0.027-0.121,0.045l-4.28,5.953l-4.288-5.939
			c-0.021-0.029-0.065-0.082-0.104-0.082c-0.016,0-0.052,0.006-0.114,0.046c-0.068,0.058-0.083,0.085-0.083,0.135v10.63
			c0,0.04,0.012,0.067,0.043,0.096c0.071,0.065,0.155,0.067,0.221,0.006c0.028-0.028,0.04-0.058,0.04-0.102V85.519l4.127,5.71
			c0.034,0.054,0.065,0.078,0.143,0.078c0.089,0,0.118-0.017,0.148-0.064L85.333,85.5z M90.07,95.723V85.027
			c0-0.109,0.038-0.202,0.115-0.279c0.076-0.076,0.169-0.114,0.278-0.114h5.906c0.109,0,0.202,0.038,0.278,0.114
			c0.077,0.077,0.115,0.173,0.115,0.287c0,0.115-0.038,0.211-0.115,0.287c-0.076,0.077-0.169,0.115-0.278,0.115h-5.496v4.545h4.807
			c0.109,0,0.202,0.041,0.279,0.123c0.076,0.082,0.114,0.178,0.114,0.285c0,0.111-0.038,0.203-0.114,0.279
			c-0.077,0.078-0.17,0.115-0.279,0.115h-4.807v4.527h5.496c0.109,0,0.202,0.039,0.278,0.115c0.077,0.076,0.115,0.172,0.115,0.287
			s-0.038,0.211-0.115,0.287c-0.076,0.076-0.169,0.115-0.278,0.115h-5.938c-0.099-0.012-0.184-0.053-0.255-0.123
			S90.07,95.832,90.07,95.723z M96.37,96.367h-5.938c-0.185-0.021-0.319-0.085-0.431-0.195c-0.118-0.116-0.181-0.271-0.181-0.449
			V85.027c0-0.176,0.065-0.333,0.188-0.456c0.123-0.122,0.28-0.188,0.455-0.188h5.906c0.175,0,0.332,0.065,0.455,0.188
			c0.123,0.123,0.188,0.284,0.188,0.464c0,0.182-0.065,0.342-0.189,0.465c-0.12,0.122-0.278,0.188-0.454,0.188h-5.246v4.045h4.557
			c0.178,0,0.337,0.069,0.461,0.202c0.12,0.128,0.183,0.286,0.183,0.456c0,0.176-0.064,0.333-0.188,0.456
			c-0.121,0.123-0.279,0.188-0.456,0.188h-4.557v4.027h5.246c0.175,0,0.332,0.065,0.455,0.188c0.123,0.121,0.188,0.282,0.188,0.464
			s-0.065,0.343-0.189,0.465C96.702,96.302,96.545,96.367,96.37,96.367z M90.464,84.884c-0.043,0-0.072,0.012-0.102,0.041
			c-0.03,0.03-0.042,0.06-0.042,0.103v10.695c0,0.055,0.017,0.078,0.032,0.094c0.031,0.031,0.065,0.048,0.108,0.053l5.909-0.002
			c0.042,0,0.071-0.012,0.102-0.042c0.022-0.022,0.042-0.05,0.042-0.11s-0.02-0.088-0.041-0.109c-0.031-0.031-0.061-0.043-0.103-0.043
			h-5.746v-5.027h5.057c0.044,0,0.072-0.012,0.102-0.041c0.03-0.03,0.042-0.06,0.042-0.104s-0.015-0.08-0.048-0.115
			s-0.062-0.043-0.096-0.043h-5.057v-5.045h5.746c0.043,0,0.071-0.012,0.101-0.041c0.023-0.023,0.043-0.051,0.043-0.111
			s-0.021-0.088-0.042-0.11c-0.029-0.029-0.059-0.041-0.102-0.041H90.464z M106.5,105H2.5c-0.276,0-0.5-0.224-0.5-0.5v-84
			C2,20.224,2.224,20,2.5,20h104c0.276,0,0.5,0.224,0.5,0.5v84C107,104.776,106.776,105,106.5,105z M3,104h103V21H3V104z M106.5,17
			h-87c-0.276,0-0.5-0.224-0.5-0.5v-7C19,9.224,19.224,9,19.5,9h87c0.276,0,0.5,0.224,0.5,0.5v7C107,16.776,106.776,17,106.5,17z
			 M20,16h86v-6H20V16z M16.5,17h-14C2.224,17,2,16.776,2,16.5v-7C2,9.224,2.224,9,2.5,9h14C16.776,9,17,9.224,17,9.5v7
			C17,16.776,16.776,17,16.5,17z M3,16h13v-6H3V16z M107,109.5c0-0.276-0.224-0.5-0.5-0.5H2.5c-0.276,0-0.5,0.224-0.5,0.5
			s0.224,0.5,0.5,0.5h104C106.776,110,107,109.776,107,109.5z M107,5.5c0-0.276-0.224-0.5-0.5-0.5H2.5C2.224,5,2,5.224,2,5.5
			S2.224,6,2.5,6h104C106.776,6,107,5.776,107,5.5z M112.006,109.494V63.506c0-0.28-0.227-0.506-0.506-0.506s-0.506,0.226-0.506,0.506
			v45.988c0,0.28,0.227,0.506,0.506,0.506S112.006,109.774,112.006,109.494z M112,56.5v-18c0-0.276-0.224-0.5-0.5-0.5
			s-0.5,0.224-0.5,0.5v18c0,0.276,0.224,0.5,0.5,0.5S112,56.776,112,56.5z M111.981,31.509V5.491c0-0.271-0.219-0.491-0.49-0.491
			S111,5.22,111,5.491v26.019c0,0.271,0.22,0.491,0.491,0.491S111.981,31.78,111.981,31.509z"/>
		<filter id="blur">
			<feGaussianBlur in="SourceGraphic" stdDeviation="1.5" />
		</filter>
	</defs>
	<use xlink:href="#logo" fill="#7495C0" filter="url(#blur)"/>
	<use xlink:href="#logo" fill="#7495C0"/>
</svg>
