<svg version="1.1" xmlns="http://www.w3.org/2000/svg" xmlns:xlink="http://www.w3.org/1999/xlink" width="218" height="112">
	<defs>
		<filter id="shadow">
			<feGaussianBlur in="SourceGraphic" stdDeviation="2" />
		</filter>
	</defs>
	<path fill="#A8A9AD" fill-opacity="0.5" d="M40.5,3h-30C6.375,3,3,6.375,3,10.5v30c0,4.125,3.375,7.5,7.5,7.5h30c4.125,0,7.5-3.375,7.5-7.5v-30
		C48,6.375,44.625,3,40.5,3z M42,38c0,2.2-1.8,4-4,4H13c-2.2,0-4-1.8-4-4V13c0-2.2,1.8-4,4-4h25c2.2,0,4,1.8,4,4V38z M13,15h11v5h-5
		v12h5v4H13V15z M27,15h11v21H27v-4h5V20h-5V15z"/>
	<g>
		<path fill="#000000" d="M48,95.5c0,4.125-3.375,7.5-7.5,7.5h-30C6.375,103,3,99.625,3,95.5v-30c0-4.125,3.375-7.5,7.5-7.5h30
			c4.125,0,7.5,3.375,7.5,7.5V95.5z" filter="url(#shadow)" transform="translate(0, 2)"/>
		<path fill="#008FE2" d="M48,95.5c0,4.125-3.375,7.5-7.5,7.5h-30C6.375,103,3,99.625,3,95.5v-30c0-4.125,3.375-7.5,7.5-7.5h30
			c4.125,0,7.5,3.375,7.5,7.5V95.5z"/>
		<path fill="#FFFFFF" d="M42,93c0,2.2-1.8,4-4,4H13c-2.2,0-4-1.8-4-4V68c0-2.2,1.8-4,4-4h25c2.2,0,4,1.8,4,4V93z"/>
		<g>
			<g>
				<path fill="#333333" d="M24,70v5h-5v12h5v4H13V70H24z"/>
			</g>
		</g>
		<g>
			<g>
				<path fill="#333333" d="M27,91v-5h5V74h-5v-4h11v21H27z"/>
			</g>
		</g>
	</g>
	<g transform="translate(51, 0)">
		<path fill="#999999" fill-opacity="0.5" d="M40.117,2H14.01L3.467,19.821L7.622,48h7.69l-0.516-6h3.643l0.662,6h0.087h15.75h0.087l0.663-6h3.643
		l-0.517,6h7.69l4.155-28.179L40.117,2z M39.953,37h-25.78l-2.095-17.088L16.402,11h6.879l-0.609,3h0.061h8.66h0.061l-0.61-3h6.88
		l4.324,8.912L39.953,37z M21.229,27.08c0,2.168-0.479,3.926-1.071,3.926c-0.591,0-1.071-1.758-1.071-3.926s0.48-3.926,1.071-3.926
		C20.749,23.154,21.229,24.912,21.229,27.08z M33.843,23.154c0.591,0,1.071,1.758,1.071,3.926s-0.48,3.926-1.071,3.926
		c-0.592,0-1.071-1.758-1.071-3.926S33.251,23.154,33.843,23.154z"/>
	</g>
	<g transform="translate(105, 0)">
		<g opacity="0.5">
			<path fill="#A7A9AC" d="M15.231,26.013V8.147C15.231,4.752,12.494,2,9.115,2C5.738,2,3,4.752,3,8.147v32.707
				c0-1.702,0.688-3.242,1.799-4.355L15.231,26.013z M9.115,5.479c1.466,0,2.654,1.194,2.654,2.667c0,1.474-1.188,2.667-2.654,2.667
				S6.461,9.621,6.461,8.147C6.461,6.674,7.649,5.479,9.115,5.479z"/>
			<path fill="#FFFFFF" d="M13.443,45.196l-0.007,0.007C13.438,45.2,13.439,45.199,13.443,45.196z"/>
			<path fill="#58595B" d="M15.231,26.013L4.799,36.498C3.688,37.611,3,39.151,3,40.854C3,44.248,5.738,47,9.115,47
				c1.688,0,3.215-0.687,4.321-1.797l0.007-0.007c1.104-1.112,1.788-2.647,1.788-4.343V26.013z M9.115,43.521
				c-1.466,0-2.654-1.194-2.654-2.667c0-1.475,1.188-2.668,2.654-2.668s2.654,1.193,2.654,2.668
				C11.77,42.326,10.581,43.521,9.115,43.521z"/>
			<path fill="#DC4E3D" d="M29.821,20.034l0.006,0.006C29.826,20.039,29.822,20.036,29.821,20.034z"/>
			<path fill="#818286" d="M19.385,24.385c0-1.694,0.682-3.229,1.785-4.342l0,0l-5.938,5.97v14.841c0,1.695-0.685,3.23-1.788,4.343
				l0.004-0.005L25.5,33.077l-4.314-4.336C20.074,27.628,19.385,26.088,19.385,24.385z"/>
			<path fill="#818286" d="M46.201,36.498C47.312,37.611,48,39.151,48,40.854V8.147C48,4.752,45.262,2,41.885,2
				c-3.379,0-6.116,2.752-6.116,6.147v17.866L46.201,36.498z M44.539,8.147c0,1.474-1.188,2.667-2.654,2.667S39.23,9.621,39.23,8.147
				c0-1.473,1.188-2.667,2.654-2.667S44.539,6.674,44.539,8.147z"/>
			<path fill="#58595B" d="M35.769,40.854c0,1.695,0.685,3.23,1.788,4.343l0.007,0.007C38.67,46.313,40.197,47,41.885,47
				C45.262,47,48,44.248,48,40.854c0-1.702-0.688-3.242-1.799-4.355L35.769,26.013V40.854z M39.23,40.854
				c0-1.475,1.188-2.668,2.654-2.668s2.654,1.193,2.654,2.668c0,1.473-1.188,2.667-2.654,2.667S39.23,42.326,39.23,40.854z"/>
			<path fill="#A8A9AD" d="M31.615,24.385c0-1.694-0.682-3.229-1.785-4.342l0,0l5.938,5.97v14.841c0,1.695,0.685,3.23,1.788,4.343
				l-0.004-0.005L25.5,33.077l4.314-4.336C30.926,27.628,31.615,26.088,31.615,24.385z"/>
			<path fill="#58595B" d="M31.615,24.385c0-1.696-0.683-3.232-1.788-4.344l-0.006-0.006c-1.106-1.11-2.634-1.797-4.321-1.797
				c-1.691,0-3.223,0.69-4.33,1.806l0,0c-1.104,1.112-1.785,2.647-1.785,4.342c0,1.703,0.689,3.243,1.801,4.356l4.314,4.336
				l4.314-4.336C30.926,27.628,31.615,26.088,31.615,24.385z M25.5,27.053c-1.466,0-2.653-1.195-2.653-2.668
				c0-1.474,1.188-2.667,2.653-2.667s2.653,1.193,2.653,2.667C28.153,25.857,26.966,27.053,25.5,27.053z"/>
		</g>
		<path d="M29.827,76.041l-0.006-0.007c-1.106-1.11-2.634-1.797-4.321-1.797c-1.691,0-3.223,0.69-4.33,1.806l-5.938,5.97V64.146
			c0-3.395-2.737-6.146-6.116-6.146C5.738,58,3,60.752,3,64.146v32.707C3,100.248,5.738,103,9.115,103
			c1.688,0,3.215-0.687,4.321-1.797l0.007-0.007c0.003-0.003,0.006-0.007,0.009-0.011L25.5,89.077l12.047,12.108
			c0.004,0.004,0.007,0.008,0.01,0.011l0.007,0.007c1.106,1.11,2.634,1.797,4.321,1.797c3.377,0,6.115-2.752,6.115-6.146V64.146
			C48,60.752,45.262,58,41.885,58c-3.379,0-6.116,2.752-6.116,6.146v17.866l-5.938-5.97 M9.115,61.479
			c1.466,0,2.654,1.194,2.654,2.667c0,1.475-1.188,2.668-2.654,2.668s-2.654-1.193-2.654-2.668
			C6.461,62.674,7.649,61.479,9.115,61.479z M9.115,99.521c-1.466,0-2.654-1.194-2.654-2.667c0-1.475,1.188-2.668,2.654-2.668
			s2.654,1.193,2.654,2.668C11.77,98.326,10.581,99.521,9.115,99.521z M41.885,61.479c1.466,0,2.654,1.194,2.654,2.667
			c0,1.475-1.188,2.668-2.654,2.668s-2.654-1.193-2.654-2.668C39.23,62.674,40.419,61.479,41.885,61.479z M22.847,80.385
			c0-1.475,1.188-2.668,2.653-2.668s2.653,1.193,2.653,2.668c0,1.473-1.188,2.668-2.653,2.668S22.847,81.857,22.847,80.385z
			 M41.885,99.521c-1.466,0-2.654-1.194-2.654-2.667c0-1.475,1.188-2.668,2.654-2.668s2.654,1.193,2.654,2.668
			C44.539,98.326,43.351,99.521,41.885,99.521z" filter="url(#shadow)" transform="translate(0, 2)"/>
		<g>
			<ellipse fill="none" cx="25.5" cy="80.385" rx="2.653" ry="2.668"/>
			<ellipse fill="none" cx="9.115" cy="64.147" rx="2.654" ry="2.667"/>
			<path fill="#F89D1C" d="M15.231,82.013V64.146c0-3.395-2.737-6.146-6.116-6.146C5.738,58,3,60.752,3,64.146v32.707
				c0-1.702,0.688-3.242,1.799-4.355L15.231,82.013z M9.115,61.479c1.466,0,2.654,1.194,2.654,2.667c0,1.475-1.188,2.668-2.654,2.668
				s-2.654-1.193-2.654-2.668C6.461,62.674,7.649,61.479,9.115,61.479z"/>
			<path fill="#FFFFFF" d="M13.443,101.196l-0.007,0.007C13.438,101.2,13.439,101.199,13.443,101.196z"/>
			<path fill="#D02D27" d="M15.231,82.013L4.799,92.498C3.688,93.611,3,95.151,3,96.854C3,100.248,5.738,103,9.115,103
				c1.688,0,3.215-0.687,4.321-1.797l0.007-0.007c1.104-1.112,1.788-2.647,1.788-4.343V82.013z M9.115,99.521
				c-1.466,0-2.654-1.194-2.654-2.667c0-1.475,1.188-2.668,2.654-2.668s2.654,1.193,2.654,2.668
				C11.77,98.326,10.581,99.521,9.115,99.521z"/>
			<path fill="#DC4E3D" d="M29.821,76.034l0.006,0.007C29.826,76.039,29.822,76.036,29.821,76.034z"/>
			<path fill="#DC4E3D" d="M19.385,80.385c0-1.694,0.682-3.229,1.785-4.342l0,0l-5.938,5.97v14.841c0,1.695-0.685,3.23-1.788,4.343
				l0.004-0.005L25.5,89.077l-4.314-4.336C20.074,83.628,19.385,82.088,19.385,80.385z"/>
			<path fill="#2FB4C5" d="M46.201,92.498C47.312,93.611,48,95.151,48,96.854V64.146C48,60.752,45.262,58,41.885,58
				c-3.379,0-6.116,2.752-6.116,6.146v17.866L46.201,92.498z M44.539,64.146c0,1.475-1.188,2.668-2.654,2.668
				s-2.654-1.193-2.654-2.668c0-1.473,1.188-2.667,2.654-2.667S44.539,62.674,44.539,64.146z"/>
			<path fill="#253B82" d="M35.769,96.854c0,1.695,0.685,3.23,1.788,4.343l0.007,0.007c1.106,1.11,2.634,1.797,4.321,1.797
				c3.377,0,6.115-2.752,6.115-6.146c0-1.702-0.688-3.242-1.799-4.355L35.769,82.013V96.854z M39.23,96.854
				c0-1.475,1.188-2.668,2.654-2.668s2.654,1.193,2.654,2.668c0,1.473-1.188,2.667-2.654,2.667S39.23,98.326,39.23,96.854z"/>
			<path fill="#694D9F" d="M31.615,80.385c0-1.694-0.682-3.229-1.785-4.342l0,0l5.938,5.97v14.841c0,1.695,0.685,3.23,1.788,4.343
				l-0.004-0.005L25.5,89.077l4.314-4.336C30.926,83.628,31.615,82.088,31.615,80.385z"/>
			<path fill="#57142A" d="M31.615,80.385c0-1.696-0.683-3.232-1.788-4.344l-0.006-0.007c-1.106-1.11-2.634-1.797-4.321-1.797
				c-1.691,0-3.223,0.69-4.33,1.806l0,0c-1.104,1.112-1.785,2.647-1.785,4.342c0,1.703,0.689,3.243,1.801,4.356l4.314,4.336
				l4.314-4.336C30.926,83.628,31.615,82.088,31.615,80.385z M25.5,83.053c-1.466,0-2.653-1.195-2.653-2.668
				c0-1.475,1.188-2.668,2.653-2.668s2.653,1.193,2.653,2.668C28.153,81.857,26.966,83.053,25.5,83.053z"/>
		</g>
	</g>
	<g transform="translate(156, 0)">
		<path opacity="0.5" fill-rule="evenodd" clip-rule="evenodd" fill="#A8A9AD" d="M40.016,45.095c0.209-0.091,0.444-0.144,0.622-0.276
			c0.633-0.474,1.318-0.562,1.945-0.105c0.752,0.549,0.737,1.363,0.69,2.284c-1.063-0.376-0.668-1.424-1.31-1.934
			c-0.836,0.036-1.111,0.559-1.027,1.412c-2.058,0.038-4.061,0.126-6.036,0.497c-0.286,0.054-0.604,0.054-0.733-0.251
			c-1.02-2.418-2.793-4.258-4.618-6.06c-0.062-0.062-0.089-0.162-0.155-0.29c0.643-0.775,1.297-1.565,1.95-2.355
			c0.001,0-0.042,0.028-0.042,0.028c1.596-1.205,2.547-3.01,3.984-4.375c-0.771,2.888-3.348,4.449-4.92,6.746
			c0.812,1.02,1.986,1.67,2.456,2.793c1.219,2.918,3.345,3.604,6.192,2.809c0.045-0.014,0.094-0.006,0.141-0.005
			c0.659,0.013,0.93-0.343,0.915-0.966L40.016,45.095z M42.147,12.309c0.182,4.43,3.99,6.241,6.869,4.924
			C45.025,17.97,43.343,15.48,42.147,12.309z M51.554,7.064c-0.019-0.637-0.5-0.879-1.065-0.875c-0.503,0.004-0.786,0.355-0.733,0.834
			c0.059,0.523,0.409,0.824,1.063,0.812C51.198,7.789,51.569,7.557,51.554,7.064z M40.07,45.047c-0.007-0.002-0.013-0.006-0.019-0.008
			c-0.012,0.02-0.025,0.035-0.036,0.056L40.07,45.047z M55.613,35.938c0.252-0.334,0.185-0.563-0.286-0.754
			c-0.648,1.102-1.283,2.176-1.988,3.37c1.255,0.011,1.225-1.136,1.887-1.503c-0.174,0.42-0.346,0.838-0.538,1.305
			c0.94,0.333,1.454,0.033,2.11-0.607c2.312-2.253,2.869-4.91,2.029-7.967c0.809-0.246,1.445-0.439,2.219-0.677
			c-0.35,0.785-1.178,0.561-1.366,0.868c0.263,2.459,0.534,4.648-1.089,6.604c-0.521,0.627-1.231,1.139-1.44,2.025
			c-0.123,0.527-0.663,0.406-1.062,0.435c-2.005,0.146-4.008,0.334-6.014,0.397c-1.998,0.064-3.715,0.863-5.346,1.879
			c-1.443,0.898-2.922,0.752-4.456,0.426c-1.18-0.252-2.369-0.461-3.854-0.747c0.916,1.564,1.851,2.653,3.185,3.341
			c1.182-0.61,1.913-2.255,3.535-1.543c0.935,0.408,1.387,2.166,1.007,3.358c-0.812-0.608,0.054-2.455-1.645-2.277
			c-0.938,0.099-1.914,0.209-2.449,1.169c-1.883-0.58-3.105-1.961-4.084-3.402c-0.511-0.219-0.789,0.57-1.332-0.059
			c0.468-0.506,0.879-1.076,1.408-1.502c1.755-1.406,3.578-2.729,5.326-4.146c1.996-1.617,2.044-3.001,0.252-4.829
			c-0.303-0.308-0.711-0.538-0.699-1.132c2.439,1.574,3.121,3.117,2.258,5.022c-0.469,1.036-1.436,1.578-2.293,2.226
			c-1.349,1.018-2.694,2.039-4.285,3.244c1.282,0.274,2.165,0.401,3.01,0.654c2.746,0.822,5.025,0.076,7.088-1.83
			c2.105-1.947,3.514-4.362,4.983-6.766c2.02-3.298,0.517-6.533,0.26-10.1c-2.175,2.483-2.848,2.791-4.064,2.035
			c-0.917-0.568-1.209-1.264-0.844-2.062c0.11,0.092,0.241,0.158,0.31,0.266c1.377,2.174,1.571,2.187,3.252,0.18
			c0.06-0.072,0.113-0.149,0.177-0.219c1.521-1.708,3.851-1.572,5.153,0.293c0.202,0.291,0.285,0.724,0.765,0.729
			c0.636-0.762,0.638-0.767,0.527-1.433c-0.311-1.9-1.876-2.88-4.001-2.429c-1.062,0.226-2.096,0.583-3.143,0.882
			c-0.028-0.072-0.058-0.143-0.087-0.214c0.38-0.229,0.757-0.458,1.221-0.739c-1.173-1.34,0.819-2.457,0.19-3.688
			c2.022-1.268,4.703,0.911,6.729-1.163c-1.853-1.4-4.154-2.155-5.005-4.765c2.866-0.321,5.233-1.458,7.716-2.041
			c0.43-3.078-1.381-5.1-4.452-4.524c-1.521,0.284-3.065,0.501-4.668-0.257c-2.714-1.283-6.849-0.336-8.961,1.789
			c-0.884,0.887-1.636,1.973-1.72,3.16c-0.114,1.627-1.075,2.625-1.983,3.74c-2.502,3.076-5.93,5.197-8.496,8.188
			c-1.489,1.737-3.342,2.427-5.499,2.685c-4.347,0.516-8.364,1.982-12.113,4.232c-4.045,2.428-7.07,6.053-11.006,9.129
			C4.748,36,7.144,35.561,9.453,34.619c6.018-2.451,11.985-2.285,17.83,0.539c1.451,0.701,3.069,1.275,3.963,2.803
			c-1.647-0.905-3.252-1.898-4.952-2.688c-5.432-2.525-10.911-2.287-16.379-0.07c-3.179,1.289-6.518,1.599-9.883,1.748
			c-0.158-0.592,0.301-0.604,0.537-0.742c2.421-1.418,4.321-3.463,6.334-5.35c5.246-4.921,11.387-7.832,18.533-8.65
			c1.807-0.208,3.365-0.797,4.535-2.399c2.311-3.168,5.778-5.196,8.326-8.155c1.02-1.183,1.999-2.27,2.201-3.953
			c0.163-1.354,0.882-2.604,2.055-3.412c2.907-2.008,5.988-3.168,9.464-1.467c0.862,0.423,1.622,0.375,2.536,0.188
			c2.324-0.474,4.663-0.84,6.344,1.578c1.185,1.705,1.184,5.141-0.146,6.555c-0.745-0.115-0.558-1.058-1.185-1.314
			c-0.729,0.262-0.479,1.281-1.156,1.605c-0.733-0.047-0.794-0.894-1.384-1.139c-0.599,0.344-0.457,1.083-0.827,1.586
			c-0.836,0.064-0.891-0.994-1.678-1.189c-0.083,0.654,0.429,0.879,0.757,1.18c0.83,0.762,1.705,1.473,2.521,2.246
			c0.766,0.729,0.524,1.609-0.5,1.962c-0.882,0.306-1.757,0.069-2.642-0.022c-1.994-0.203-3.194,1.137-2.907,3.307
			c0.831-0.479,1.606-0.992,2.438-1.391c2.022-0.967,4.171-0.7,5.188,0.606c0.337,0.434,0.787,0.888,0.39,1.5
			c-0.466,0.715-1.083,0.308-1.642,0.144c-0.471-0.138-0.805-0.678-1.537-0.445c0.678,0.707,1.137,1.461,1.286,2.396
			c0.129,0.803,0.196,1.586-0.673,1.916c-0.815,0.309-1.439-0.12-1.822-0.898c-0.527-1.067-1.338-1.51-2.65-1.072
			c0.541,4.232,2.236,8.619-1.523,12.336c3.357,1.146,4.882,0.314,5.85-2.959c-0.384-0.627-1.5-0.906-1.176-1.869
			c0.286-0.852,0.971-1.43,2.098-1.597c-1.896,1.975-1.896,1.975-0.328,2.976c-0.974-1.54-0.108-1.934,1.01-2.303
			c0.816-0.27,1.565-0.74,2.608-1.248c-0.892,1.451-2.3,1.509-3.098,2.034C58.036,32.075,56.981,34.066,55.613,35.938z M59.994,9.153
			l0.622,0.978l0.285-1.256L59.994,9.153z M57.571,9.807l0.746,1.023l0.402-1.397L57.571,9.807z M55.18,10.428l0.839,0.838
			l0.246-1.148L55.18,10.428z M58.238,19.764c0.239,0.143,0.492,0.311,0.773,0.105c0.216-0.158,0.262-0.377,0.124-0.613
			c-0.469-0.809-1.035-1.389-2.102-1.344c-0.976,0.043-1.632,0.298-1.613,1.704C56.509,18.881,57.382,19.254,58.238,19.764z
			 M51.019,38.918c0.953-0.954,1.436-2.219,2.105-3.358c-0.127-0.092-0.254-0.182-0.383-0.273c-0.691,1.138-1.382,2.273-2.072,3.411
			C50.785,38.771,50.901,38.846,51.019,38.918z M54.373,35.379c-1.218,0.756-1.565,2.093-2.179,3.253
			C53.404,37.87,53.947,36.663,54.373,35.379z M31.345,38.017c-0.033-0.019-0.065-0.037-0.099-0.056
			c0.018,0.03,0.039,0.055,0.056,0.084L31.345,38.017z"/>
		<g>
			<g>
				<path d="M61.268,83.455c-1.043,0.508-1.792,0.979-2.608,1.248c-1.118,0.369-1.983,0.763-1.01,2.303
					c-1.568-1.001-1.568-1.001,0.328-2.976c-1.127,0.168-1.812,0.745-2.098,1.598c-0.324,0.962,0.792,1.242,1.176,1.868
					c-0.968,3.273-2.492,4.106-5.85,2.96c3.76-3.717,2.064-8.104,1.523-12.336c1.312-0.438,2.123,0.004,2.65,1.072
					c0.383,0.777,1.007,1.206,1.822,0.897c0.869-0.329,0.802-1.113,0.673-1.916c-0.149-0.936-0.608-1.688-1.286-2.396
					c0.732-0.232,1.066,0.308,1.537,0.446c0.559,0.163,1.176,0.57,1.642-0.145c0.397-0.611-0.053-1.066-0.39-1.5
					c-1.018-1.307-3.166-1.573-5.188-0.605c-0.831,0.397-1.606,0.912-2.438,1.39c-0.287-2.17,0.913-3.51,2.907-3.306
					c0.885,0.092,1.76,0.327,2.642,0.021c1.024-0.352,1.266-1.232,0.5-1.962c-0.816-0.773-1.691-1.483-2.521-2.245
					c-0.328-0.302-0.84-0.525-0.757-1.181c0.787,0.196,0.842,1.254,1.678,1.189c0.37-0.503,0.229-1.242,0.827-1.585
					c0.59,0.244,0.65,1.091,1.384,1.138c0.678-0.324,0.427-1.343,1.156-1.605c0.627,0.257,0.439,1.2,1.185,1.314
					c1.329-1.414,1.33-4.85,0.146-6.554c-1.681-2.418-4.02-2.053-6.344-1.579c-0.914,0.188-1.674,0.235-2.536-0.188
					c-3.476-1.701-6.557-0.541-9.464,1.467c-1.173,0.81-1.892,2.059-2.055,3.412c-0.202,1.684-1.182,2.771-2.201,3.953
					c-2.548,2.96-6.016,4.987-8.326,8.155c-1.17,1.603-2.728,2.191-4.535,2.399c-7.146,0.819-13.287,3.729-18.533,8.65
					c-2.013,1.887-3.913,3.932-6.334,5.35c-0.236,0.139-0.695,0.151-0.537,0.743c3.365-0.15,6.704-0.46,9.883-1.749
					c5.468-2.217,10.947-2.454,16.379,0.07c1.7,0.79,3.303,1.782,4.951,2.688c0.018,0.029,0.04,0.054,0.057,0.085
					c0.014-0.01,0.025-0.021,0.038-0.032c0.002,0.001,0.003,0.002,0.005,0.003l-0.002,0.002c-0.653,0.79-1.307,1.579-1.949,2.354
					c0.066,0.128,0.093,0.229,0.155,0.29c1.825,1.802,3.599,3.642,4.618,6.06c0.13,0.305,0.447,0.305,0.733,0.251
					c1.976-0.371,3.979-0.459,6.036-0.497c-0.084-0.854,0.191-1.375,1.027-1.412c0.642,0.51,0.246,1.558,1.31,1.934
					c0.047-0.921,0.062-1.735-0.69-2.284c-0.627-0.457-1.312-0.368-1.945,0.106c-0.163,0.121-0.375,0.177-0.57,0.256
					c0-0.011,0.003-0.018,0.003-0.028c-0.007-0.002-0.013-0.005-0.02-0.007c0.535-0.961,1.513-1.07,2.45-1.17
					c1.698-0.178,0.833,1.67,1.645,2.277c0.38-1.192-0.072-2.949-1.007-3.358c-1.622-0.712-2.354,0.933-3.535,1.543
					c-1.334-0.688-2.269-1.776-3.185-3.341c1.485,0.286,2.675,0.496,3.854,0.747c1.534,0.326,3.013,0.474,4.456-0.426
					c1.631-1.015,3.348-1.814,5.346-1.878c2.006-0.064,4.009-0.253,6.014-0.398c0.398-0.028,0.938,0.094,1.062-0.434
					c0.209-0.888,0.919-1.398,1.44-2.026c1.623-1.955,1.352-4.145,1.089-6.603c0.188-0.309,1.017-0.084,1.366-0.869
					c-0.773,0.237-1.41,0.431-2.219,0.677c0.126,0.459,0.21,0.905,0.271,1.346H57.95l-0.002,0.002
					c-0.015,0.064-0.026,0.129-0.041,0.192c0.139-0.578,0.229-1.187,0.263-1.832C58.968,84.964,60.376,84.907,61.268,83.455z" filter="url(#shadow)" transform="translate(0, 2)"/>
			</g>
			<g>
				<path fill-rule="evenodd" clip-rule="evenodd" fill="#FFFFFF" d="M31.345,94.017c-1.682-0.92-3.316-1.938-5.05-2.743
					c-5.432-2.524-10.911-2.287-16.379-0.07c-3.179,1.289-6.518,1.599-9.883,1.749c-0.158-0.592,0.301-0.604,0.537-0.743
					c2.421-1.418,4.321-3.463,6.334-5.35c5.246-4.921,11.387-7.831,18.533-8.65c1.807-0.208,3.365-0.797,4.535-2.399
					c2.311-3.168,5.778-5.195,8.326-8.155c1.02-1.183,1.999-2.27,2.201-3.953c0.163-1.354,0.882-2.603,2.055-3.412
					c2.907-2.008,5.988-3.168,9.464-1.467c0.862,0.423,1.622,0.375,2.536,0.188c2.324-0.474,4.663-0.839,6.344,1.579
					c1.185,1.704,1.184,5.14-0.146,6.554c-0.745-0.114-0.558-1.058-1.185-1.314c-0.729,0.263-0.479,1.281-1.156,1.605
					c-0.733-0.047-0.794-0.894-1.384-1.138c-0.599,0.343-0.457,1.082-0.827,1.585c-0.836,0.064-0.891-0.993-1.678-1.189
					c-0.083,0.655,0.429,0.879,0.757,1.181c0.83,0.762,1.705,1.472,2.521,2.245c0.766,0.729,0.524,1.61-0.5,1.962
					c-0.882,0.306-1.757,0.07-2.642-0.021c-1.994-0.204-3.194,1.136-2.907,3.306c0.831-0.478,1.606-0.992,2.438-1.39
					c2.022-0.968,4.171-0.701,5.188,0.605c0.337,0.434,0.787,0.889,0.39,1.5c-0.466,0.715-1.083,0.308-1.642,0.145
					c-0.471-0.139-0.805-0.679-1.537-0.446c0.678,0.708,1.137,1.461,1.286,2.396c0.129,0.803,0.196,1.587-0.673,1.916
					c-0.815,0.309-1.439-0.12-1.822-0.897c-0.527-1.068-1.338-1.51-2.65-1.072c0.541,4.232,2.236,8.619-1.523,12.336
					c3.357,1.146,4.882,0.313,5.85-2.96c-0.384-0.626-1.5-0.906-1.176-1.868c0.286-0.853,0.971-1.43,2.098-1.598
					c-1.896,1.975-1.896,1.975-0.328,2.976c-0.974-1.54-0.108-1.934,1.01-2.303c0.816-0.27,1.565-0.74,2.608-1.248
					c-0.892,1.452-2.3,1.509-3.098,2.034c-0.134,2.586-1.188,4.577-2.557,6.449c0.252-0.334,0.185-0.564-0.286-0.755
					c-0.648,1.102-1.283,2.177-1.988,3.37c1.255,0.011,1.225-1.136,1.887-1.503c-0.174,0.421-0.346,0.839-0.538,1.306
					c0.94,0.332,1.454,0.032,2.11-0.608c2.312-2.253,2.869-4.909,2.029-7.967c0.809-0.246,1.445-0.439,2.219-0.677
					c-0.35,0.785-1.178,0.561-1.366,0.869c0.263,2.458,0.534,4.647-1.089,6.603c-0.521,0.628-1.231,1.139-1.44,2.026
					c-0.123,0.527-0.663,0.405-1.062,0.434c-2.005,0.146-4.008,0.334-6.014,0.398c-1.998,0.063-3.715,0.863-5.346,1.878
					c-1.443,0.899-2.922,0.752-4.456,0.426c-1.18-0.251-2.369-0.461-3.854-0.747c0.916,1.564,1.851,2.653,3.185,3.341
					c1.182-0.61,1.913-2.255,3.535-1.543c0.935,0.409,1.387,2.166,1.007,3.358c-0.812-0.607,0.054-2.455-1.645-2.277
					c-0.957,0.102-1.958,0.208-2.485,1.225l0.055-0.048c-1.894-0.576-3.12-1.963-4.103-3.41c-0.511-0.219-0.789,0.57-1.332-0.058
					c0.468-0.507,0.879-1.077,1.408-1.503c1.755-1.406,3.578-2.729,5.326-4.146c1.996-1.618,2.044-3.002,0.252-4.83
					c-0.303-0.308-0.711-0.538-0.699-1.132c2.439,1.575,3.121,3.117,2.258,5.022c-0.469,1.036-1.436,1.578-2.293,2.226
					c-1.349,1.018-2.694,2.039-4.285,3.244c1.282,0.274,2.165,0.401,3.01,0.654c2.746,0.822,5.025,0.077,7.088-1.83
					c2.105-1.946,3.514-4.362,4.983-6.766c2.02-3.298,0.517-6.532,0.26-10.1c-2.175,2.483-2.848,2.791-4.064,2.035
					c-0.917-0.568-1.209-1.263-0.844-2.062c0.11,0.092,0.241,0.158,0.31,0.266c1.377,2.175,1.571,2.187,3.252,0.18
					c0.06-0.072,0.113-0.149,0.177-0.219c1.521-1.708,3.851-1.571,5.153,0.294c0.202,0.29,0.285,0.723,0.765,0.729
					c0.636-0.762,0.638-0.766,0.527-1.432c-0.311-1.9-1.876-2.881-4.001-2.43c-1.062,0.226-2.096,0.584-3.143,0.883
					c-0.028-0.072-0.058-0.143-0.087-0.215c0.38-0.229,0.757-0.458,1.221-0.739c-1.173-1.34,0.819-2.456,0.19-3.687
					c2.022-1.268,4.703,0.91,6.729-1.164c-1.853-1.4-4.154-2.154-5.005-4.765c2.866-0.321,5.233-1.458,7.716-2.041
					c0.43-3.078-1.381-5.099-4.452-4.524c-1.521,0.284-3.065,0.501-4.668-0.257c-2.714-1.283-6.849-0.336-8.961,1.789
					c-0.884,0.888-1.636,1.973-1.72,3.161c-0.114,1.626-1.075,2.624-1.983,3.74c-2.502,3.076-5.93,5.196-8.496,8.188
					c-1.489,1.737-3.342,2.428-5.499,2.685c-4.347,0.517-8.364,1.982-12.113,4.232c-4.045,2.428-7.07,6.054-11.006,9.129
					C4.748,92,7.144,91.562,9.453,90.62c6.018-2.451,11.985-2.286,17.83,0.538c1.479,0.715,3.136,1.292,4.019,2.888L31.345,94.017z
					 M55.421,75.616c1.088-0.735,1.961-0.361,2.817,0.148c0.239,0.143,0.492,0.311,0.773,0.105c0.216-0.158,0.262-0.378,0.124-0.613
					c-0.469-0.809-1.035-1.39-2.102-1.344C56.059,73.956,55.402,74.21,55.421,75.616z M52.194,94.632
					c1.21-0.762,1.753-1.969,2.179-3.253C53.155,92.135,52.808,93.472,52.194,94.632z M53.124,91.56
					c-0.127-0.092-0.254-0.182-0.383-0.273c-0.691,1.138-1.382,2.273-2.072,3.412c0.116,0.073,0.232,0.147,0.35,0.221
					C51.972,93.964,52.454,92.699,53.124,91.56z M40.07,101.047c0.015,0.624-0.256,0.979-0.915,0.966
					c-0.047-0.001-0.096-0.008-0.141,0.005c-2.848,0.795-4.974,0.109-6.192-2.808c-0.47-1.124-1.644-1.774-2.456-2.794
					c1.572-2.297,4.148-3.858,4.92-6.745c-1.438,1.365-2.389,3.169-3.984,4.375c0,0,0.043-0.029,0.042-0.029
					c-0.653,0.791-1.308,1.58-1.95,2.355c0.066,0.128,0.093,0.229,0.155,0.29c1.825,1.802,3.599,3.642,4.618,6.06
					c0.13,0.305,0.447,0.305,0.733,0.251c1.976-0.371,3.979-0.459,6.036-0.497c-0.084-0.854,0.191-1.375,1.027-1.412
					c0.642,0.51,0.246,1.558,1.31,1.934c0.047-0.921,0.062-1.735-0.69-2.284c-0.627-0.457-1.312-0.368-1.945,0.106
					c-0.178,0.132-0.413,0.185-0.622,0.275L40.07,101.047z M42.147,68.309c0.182,4.43,3.99,6.241,6.869,4.925
					C45.025,73.97,43.343,71.481,42.147,68.309z M51.554,63.064c-0.019-0.636-0.5-0.879-1.065-0.875
					c-0.503,0.005-0.786,0.356-0.733,0.834c0.059,0.524,0.409,0.824,1.063,0.812C51.198,63.789,51.569,63.557,51.554,63.064z"/>
				<path fill-rule="evenodd" clip-rule="evenodd" d="M55.18,66.428l1.085-0.311l-0.246,1.148L55.18,66.428z M57.571,65.807
					l0.746,1.023l0.402-1.397L57.571,65.807z M59.994,65.153l0.622,0.979l0.285-1.257L59.994,65.153z M56.798,93.748
					c-0.656,0.641-1.17,0.94-2.11,0.608c0.192-0.467,0.364-0.885,0.538-1.306c-0.662,0.367-0.632,1.514-1.887,1.503
					c0.705-1.193,1.34-2.269,1.988-3.37c0.471,0.19,0.538,0.421,0.286,0.755c1.026-1.403,1.876-2.875,2.293-4.613
					c0.016-0.064,0.027-0.131,0.042-0.196l0.002-0.002h1.155C59.456,89.623,58.764,91.833,56.798,93.748z M35.968,97.637
					c-0.511-0.219-0.789,0.57-1.332-0.058c0.468-0.507,0.879-1.077,1.408-1.503c1.755-1.406,3.578-2.729,5.326-4.146
					c1.996-1.618,2.044-3.002,0.252-4.83c-0.303-0.308-0.711-0.538-0.699-1.132c2.439,1.575,3.121,3.117,2.258,5.022
					c-0.469,1.036-1.436,1.578-2.293,2.226c-1.349,1.018-2.694,2.039-4.285,3.244c1.282,0.274,2.165,0.401,3.01,0.654
					c2.746,0.822,5.025,0.077,7.088-1.83c2.105-1.946,3.514-4.362,4.983-6.766c2.02-3.298,0.517-6.532,0.26-10.1
					c-2.175,2.483-2.848,2.791-4.064,2.035c-0.917-0.568-1.209-1.263-0.844-2.062c0.11,0.092,0.241,0.158,0.31,0.266
					c1.377,2.175,1.571,2.187,3.252,0.18c0.06-0.072,0.113-0.149,0.177-0.219c1.521-1.708,3.851-1.571,5.153,0.294
					c0.202,0.29,0.285,0.723,0.765,0.729c0.636-0.762,0.638-0.766,0.527-1.432c-0.311-1.9-1.876-2.881-4.001-2.43
					c-1.062,0.226-2.096,0.584-3.143,0.883c-0.028-0.072-0.058-0.143-0.087-0.215c0.38-0.229,0.757-0.458,1.221-0.739
					c-1.173-1.34,0.819-2.456,0.19-3.687c2.022-1.268,4.703,0.91,6.729-1.164c-1.853-1.4-4.154-2.154-5.005-4.765
					c2.866-0.321,5.233-1.458,7.716-2.041c0.43-3.078-1.381-5.099-4.452-4.524c-1.521,0.284-3.065,0.501-4.668-0.257
					c-2.714-1.283-6.849-0.336-8.961,1.789c-0.884,0.888-1.636,1.973-1.72,3.161c-0.114,1.626-1.075,2.624-1.983,3.74
					c-2.502,3.076-5.93,5.196-8.496,8.188c-1.489,1.737-3.342,2.428-5.499,2.685c-4.347,0.517-8.364,1.982-12.113,4.232
					c-4.045,2.428-7.07,6.054-11.006,9.129C4.748,92,7.144,91.562,9.453,90.62c6.018-2.451,11.985-2.286,17.83,0.538
					c1.479,0.715,3.136,1.292,4.019,2.888c1.596-1.206,2.547-3.01,3.984-4.375c-0.771,2.887-3.348,4.448-4.92,6.745
					c0.812,1.02,1.986,1.67,2.456,2.794c1.219,2.917,3.345,3.603,6.192,2.808c0.045-0.013,0.094-0.006,0.141-0.005
					c0.659,0.014,0.93-0.342,0.915-0.966C38.177,100.471,36.95,99.084,35.968,97.637z M42.147,68.309
					c1.195,3.173,2.878,5.661,6.869,4.925C46.138,74.55,42.329,72.738,42.147,68.309z M49.755,63.023
					c-0.053-0.478,0.23-0.829,0.733-0.834c0.565-0.004,1.047,0.239,1.065,0.875c0.016,0.492-0.355,0.725-0.735,0.771
					C50.164,63.848,49.813,63.548,49.755,63.023z M58.238,75.765c0.239,0.143,0.492,0.311,0.773,0.105
					c0.216-0.158,0.262-0.378,0.124-0.613c-0.469-0.809-1.035-1.39-2.102-1.344c-0.976,0.043-1.632,0.297-1.613,1.703
					C56.509,74.881,57.382,75.255,58.238,75.765z M54.373,91.379c-1.218,0.756-1.565,2.093-2.179,3.253
					C53.404,93.87,53.947,92.663,54.373,91.379z M52.741,91.286c-0.691,1.138-1.382,2.273-2.072,3.412
					c0.116,0.073,0.232,0.147,0.35,0.221c0.953-0.955,1.436-2.22,2.105-3.359C52.997,91.468,52.87,91.378,52.741,91.286z"/>
			</g>
		</g>
	</g>
</svg>
