<?xml version="1.0" encoding="utf-8"?>
<!-- Generator: Adobe Illustrator 16.2.1, SVG Export Plug-In . SVG Version: 6.00 Build 0)  -->
<!DOCTYPE svg PUBLIC "-//W3C//DTD SVG 1.1//EN" "http://www.w3.org/Graphics/SVG/1.1/DTD/svg11.dtd">
<svg version="1.1" id="Layer_1" xmlns="http://www.w3.org/2000/svg" xmlns:xlink="http://www.w3.org/1999/xlink" x="0px" y="0px"
	 width="128px" height="128px" viewBox="0 0 128 128" enable-background="new 0 0 128 128" xml:space="preserve">
<path fill="#253B82" d="M33.786,116.668C34.934,115.42,34.935,115.403,33.786,116.668L33.786,116.668z"/>
<path fill="#253B82" d="M94.56,117.05C92.415,114.692,92.468,114.91,94.56,117.05L94.56,117.05z"/>
<path fill="#253B82" d="M94.56,117.05C92.468,114.91,92.415,114.692,94.56,117.05c0.226,0.23,0.467,0.476,0.739,0.75l0.044,0.023
	c2.874,2.886,6.858,4.675,11.243,4.675c8.785,0,15.908-7.155,15.908-15.979c0-4.426,0.006-4.425,0.006,0.001V21.482
	c0-8.827-7.215-15.982-16-15.982c-8.781,0-16,7.155-16,15.982v46.453l-14.22-14.39c-0.325-0.396-0.669-0.777-1.029-1.141
	l-0.015-0.017C72.36,49.504,68.389,47.716,64,47.716v9.05c3.812,0,6.9,3.103,6.9,6.933c0,3.829-3.089,6.936-6.9,6.936v15.689
	l30.732,30.915C94.671,117.171,94.618,117.114,94.56,117.05z M106.599,14.546c3.812,0,6.901,3.105,6.901,6.936
	c0,3.833-3.089,6.936-6.901,6.936c-3.809,0-6.897-3.104-6.897-6.936C99.701,17.651,102.79,14.546,106.599,14.546z M106.599,99.584
	c3.812,0,6.901,3.103,6.901,6.936c0,3.83-3.089,6.935-6.901,6.935c-3.81,0-6.898-3.104-6.898-6.935
	C99.7,102.686,102.789,99.584,106.599,99.584z"/>
<path fill="#253B82" d="M95.287,117.797l-0.555-0.558c0.173,0.19,0.337,0.389,0.518,0.57L95.287,117.797z"/>
<path fill="#DC4E3D" d="M57.101,63.699c0-3.832,3.089-6.933,6.899-6.933v-9.05c-4.399,0-8.378,1.796-11.258,4.696
	c-0.36,0.362-0.702,0.743-1.026,1.138L37.5,67.936V67.5V21.482c0-8.827-7.218-15.982-16-15.982s-16,7.155-16,15.982v85.037
	c0-0.807,0.025-0.874,0.025-0.109c0,8.824,7.105,16.035,15.888,16.035c4.387,0,8.352-1.759,11.228-4.645l0.073-0.003l0.036,0.012
	c0.183-0.185,0.35-0.386,0.525-0.578l-0.103,0.103c0.233-0.252,0.436-0.473,0.614-0.666c1.149-1.265,1.148-1.248,0,0
	c-0.154,0.169-0.316,0.348-0.511,0.563L64,86.324V70.635C60.19,70.635,57.101,67.528,57.101,63.699z M21.401,113.454
	c-3.812,0-6.901-3.104-6.901-6.935c0-3.833,3.089-6.935,6.901-6.935c3.811,0,6.9,3.104,6.9,6.935
	C28.301,110.35,25.212,113.454,21.401,113.454z M21.401,28.417c-3.812,0-6.901-3.104-6.901-6.936
	c-0.001-3.83,3.088-6.936,6.901-6.936c3.811,0,6.9,3.105,6.9,6.936C28.301,25.314,25.212,28.417,21.401,28.417z"/>
<g>
	<path fill="#F89D1C" d="M37.5,67.936V21.482c0-8.827-7.218-15.982-16-15.982s-16,7.155-16,15.982v85.037
		c0-4.426,1.887-8.429,4.776-11.322L37.5,67.936z M21.401,14.546c3.811,0,6.9,3.105,6.9,6.936c0,3.833-3.089,6.936-6.9,6.936
		c-3.812,0-6.901-3.104-6.901-6.936C14.499,17.651,17.588,14.546,21.401,14.546z"/>
	<path fill="#FFFFFF" d="M32.651,117.81l-0.017,0.019C32.64,117.82,32.644,117.817,32.651,117.81z"/>
	<path fill="#D02D27" d="M37.4,67.5L10.227,94.979c-2.889,2.895-4.701,7.006-4.701,11.432c0,8.824,7.105,16.035,15.888,16.035
		c4.387,0,8.352-1.759,11.228-4.645l0.112-0.005c2.872-2.89,4.747-6.869,4.747-11.276V67.5H37.4z M21.401,113.454
		c-3.812,0-6.901-3.104-6.901-6.935c0-3.833,3.089-6.935,6.901-6.935c3.811,0,6.9,3.104,6.9,6.935
		C28.301,110.35,25.212,113.454,21.401,113.454z"/>
	<path fill="#DC4E3D" d="M75.236,52.389l0.015,0.017C75.247,52.4,75.24,52.395,75.236,52.389z"/>
	<path fill="#DC4E3D" d="M48.099,63.698c0-4.405,1.874-8.396,4.742-11.286l0,0L37.5,67.936v38.584c0,4.407-1.878,8.4-4.75,11.29
		l-0.038-0.013L64.025,86.3L52.796,75.028C49.905,72.134,48.099,68.129,48.099,63.698z"/>
	<path fill="#2FB4C5" d="M117.725,95.196c2.889,2.895,4.775,6.897,4.775,11.323V21.482c0-8.827-7.215-15.982-16-15.982
		c-8.781,0-16,7.155-16,15.982v46.454L117.725,95.196z M113.5,21.482c0,3.833-3.089,6.936-6.901,6.936
		c-3.809,0-6.897-3.104-6.897-6.936c0-3.831,3.089-6.936,6.897-6.936C110.411,14.546,113.5,17.651,113.5,21.482z"/>
	<path fill="#253B82" d="M90.598,106.5c0,4,1.83,8.41,4.701,11.3l0.044,0.023c2.874,2.886,6.858,4.675,11.243,4.675
		c8.785,0,15.908-7.155,15.908-15.979c0-4.426-1.884-8.43-4.773-11.323L90.5,67.936V106.5H90.598z M99.7,106.52
		c0-3.834,3.089-6.936,6.898-6.936c3.812,0,6.901,3.103,6.901,6.936c0,3.83-3.089,6.935-6.901,6.935
		C102.789,113.454,99.7,110.35,99.7,106.52z"/>
	<path fill="#694D9F" d="M79.901,63.698c0-4.405-1.875-8.396-4.741-11.286l0,0L90.5,67.936v38.584c0,4.407,1.879,8.4,4.75,11.29
		l0.037-0.013L63.976,86.3l11.229-11.271C78.095,72.134,79.901,68.129,79.901,63.698z"/>
	<path fill="#57142A" d="M79.901,63.698c0-4.409-1.778-8.402-4.65-11.293l-0.015-0.017C72.36,49.504,68.389,47.716,64,47.716
		c-4.399,0-8.378,1.796-11.258,4.696l0,0c-2.867,2.89-4.643,6.881-4.643,11.286c0,4.431,1.794,8.435,4.685,11.33L64,86.3
		l11.217-11.271C78.107,72.134,79.901,68.129,79.901,63.698z M64,70.635c-3.81,0-6.899-3.106-6.899-6.936
		c0-3.832,3.089-6.933,6.899-6.933c3.812,0,6.9,3.103,6.9,6.933C70.9,67.528,67.812,70.635,64,70.635z"/>
</g>
</svg>
